[2026-03-25T03:22:15] SOURCE: D:\apps\ErsatzTV-HLS-Copy-Prep\source\12.mp4
[2026-03-25T03:22:15] TARGET: D:\apps\ErsatzTV-HLS-Copy-Prep\target\12.mp4
[2026-03-25T03:22:15] FPS: 25.000000
[2026-03-25T03:22:15] CMD: ["D:\\apps\\ErsatzTV-HLS-Copy-Prep\\bin\\ffmpeg.exe", "-y", "-hide_banner", "-loglevel", "info", "-stats_period", "5", "-progress", "pipe:1", "-i", "D:\\apps\\ErsatzTV-HLS-Copy-Prep\\source\\12.mp4", "-map", "0:v:0", "-map", "0:a:0?", "-sn", "-dn", "-vf", "scale=trunc(iw/2)*2:trunc(ih/2)*2,setsar=1,fps=25", "-c:v", "libx264", "-preset", "medium", "-crf", "18", "-pix_fmt", "yuv420p", "-profile:v", "high", "-level", "4.1", "-g", "25", "-keyint_min", "25", "-sc_threshold", "0", "-bf", "0", "-force_key_frames", "expr:gte(t,n_forced*1)", "-c:a", "aac", "-b:a", "192k", "-ar", "48000", "-ac", "2", "-movflags", "+faststart", "D:\\apps\\ErsatzTV-HLS-Copy-Prep\\target\\12.mp4"]

ffmpeg stats and -progress period set to 5.
Input #0, mov,mp4,m4a,3gp,3g2,mj2, from 'D:\apps\ErsatzTV-HLS-Copy-Prep\source\12.mp4':
  Metadata:
    major_brand     : isom
    minor_version   : 512
    compatible_brands: isomiso2mp41
    encoder         : Lavf58.12.100
  Duration: 00:27:59.21, start: 0.000000, bitrate: 1039 kb/s
  Stream #0:0[0x1](und): Video: hevc (Main) (hev1 / 0x31766568), yuv420p(tv, bt709), 1920x1080 [SAR 1:1 DAR 16:9], 939 kb/s, 25 fps, 25 tbr, 90k tbn (default)
      Metadata:
        handler_name    : VideoHandler
        vendor_id       : [0][0][0][0]
  Stream #0:1[0x2](und): Audio: aac (LC) (mp4a / 0x6134706D), 48000 Hz, stereo, fltp, 93 kb/s (default)
      Metadata:
        handler_name    : SoundHandler
        vendor_id       : [0][0][0][0]
Stream mapping:
  Stream #0:0 -> #0:0 (hevc (native) -> h264 (libx264))
  Stream #0:1 -> #0:1 (aac (native) -> aac (native))
Press [q] to stop, [?] for help
[libx264 @ 000001d468181380] using SAR=1/1
[libx264 @ 000001d468181380] using cpu capabilities: MMX2 SSE2Fast SSSE3 SSE4.2 AVX
[libx264 @ 000001d468181380] profile High, level 4.1, 4:2:0, 8-bit
[libx264 @ 000001d468181380] 264 - core 165 - H.264/MPEG-4 AVC codec - Copyleft 2003-2025 - http://www.videolan.org/x264.html - options: cabac=1 ref=3 deblock=1:0:0 analyse=0x3:0x113 me=hex subme=7 psy=1 psy_rd=1.00:0.00 mixed_ref=1 me_range=16 chroma_me=1 trellis=1 8x8dct=1 cqm=0 deadzone=21,11 fast_pskip=1 chroma_qp_offset=-2 threads=12 lookahead_threads=2 sliced_threads=0 nr=0 decimate=1 interlaced=0 bluray_compat=0 constrained_intra=0 bframes=0 weightp=2 keyint=25 keyint_min=13 scenecut=0 intra_refresh=0 rc_lookahead=25 rc=crf mbtree=1 crf=18.0 qcomp=0.60 qpmin=0 qpmax=69 qpstep=4 ip_ratio=1.40 aq=1:1.00
Output #0, mp4, to 'D:\apps\ErsatzTV-HLS-Copy-Prep\target\12.mp4':
  Metadata:
    major_brand     : isom
    minor_version   : 512
    compatible_brands: isomiso2mp41
    encoder         : Lavf61.7.100
  Stream #0:0(und): Video: h264 (avc1 / 0x31637661), yuv420p(tv, bt709, progressive), 1920x1080 [SAR 1:1 DAR 16:9], q=2-31, 25 fps, 12800 tbn (default)
      Metadata:
        handler_name    : VideoHandler
        vendor_id       : [0][0][0][0]
        encoder         : Lavc61.19.101 libx264
      Side data:
        cpb: bitrate max/min/avg: 0/0/0 buffer size: 0 vbv_delay: N/A
  Stream #0:1(und): Audio: aac (LC) (mp4a / 0x6134706D), 48000 Hz, stereo, fltp, 192 kb/s (default)
      Metadata:
        handler_name    : SoundHandler
        vendor_id       : [0][0][0][0]
        encoder         : Lavc61.19.101 aac
frame=  290 fps= 58 q=20.0 size=    1792KiB time=00:00:11.64 bitrate=1261.2kbits/s speed=2.32x    
frame=290
fps=57.75
stream_0_0_q=20.0
bitrate=1261.2kbits/s
total_size=1835056
out_time_us=11640000
out_time_ms=11640000
out_time=00:00:11.640000
dup_frames=0
drop_frames=0
speed=2.32x
progress=continue
frame=  507 fps= 50 q=23.0 size=    4608KiB time=00:00:20.32 bitrate=1857.7kbits/s speed=2.02x    
frame=507
fps=50.44
stream_0_0_q=23.0
bitrate=1857.7kbits/s
total_size=4718640
out_time_us=20320000
out_time_ms=20320000
out_time=00:00:20.320000
dup_frames=0
drop_frames=0
speed=2.02x
progress=continue
frame=  633 fps= 42 q=23.0 size=    8192KiB time=00:00:25.36 bitrate=2646.3kbits/s speed=1.68x    
frame=633
fps=42.00
stream_0_0_q=23.0
bitrate=2646.3kbits/s
total_size=8388656
out_time_us=25360000
out_time_ms=25360000
out_time=00:00:25.360000
dup_frames=0
drop_frames=0
speed=1.68x
progress=continue
frame=  759 fps= 38 q=23.0 size=   12032KiB time=00:00:30.40 bitrate=3242.3kbits/s speed=1.51x    
frame=759
fps=37.77
stream_0_0_q=23.0
bitrate=3242.3kbits/s
total_size=12320816
out_time_us=30400000
out_time_ms=30400000
out_time=00:00:30.400000
dup_frames=0
drop_frames=0
speed=1.51x
progress=continue
frame=  879 fps= 35 q=23.0 size=   15616KiB time=00:00:35.20 bitrate=3634.3kbits/s speed= 1.4x    
frame=879
fps=35.02
stream_0_0_q=23.0
bitrate=3634.3kbits/s
total_size=15990832
out_time_us=35200000
out_time_ms=35200000
out_time=00:00:35.200000
dup_frames=0
drop_frames=0
speed= 1.4x
progress=continue
frame= 1004 fps= 33 q=23.0 size=   19712KiB time=00:00:40.20 bitrate=4016.9kbits/s speed=1.33x    
frame=1004
fps=33.31
stream_0_0_q=23.0
bitrate=4016.9kbits/s
total_size=20185136
out_time_us=40200000
out_time_ms=40200000
out_time=00:00:40.200000
dup_frames=0
drop_frames=0
speed=1.33x
progress=continue
frame= 1104 fps= 31 q=23.0 size=   23552KiB time=00:00:44.20 bitrate=4365.1kbits/s speed=1.26x    
frame=1104
fps=31.38
stream_0_0_q=23.0
bitrate=4365.1kbits/s
total_size=24117296
out_time_us=44200000
out_time_ms=44200000
out_time=00:00:44.200000
dup_frames=0
drop_frames=0
speed=1.26x
progress=continue
frame= 1203 fps= 30 q=23.0 size=   27904KiB time=00:00:48.08 bitrate=4754.4kbits/s speed= 1.2x    
frame=1203
fps=29.93
stream_0_0_q=23.0
bitrate=4754.4kbits/s
total_size=28573744
out_time_us=48080000
out_time_ms=48080000
out_time=00:00:48.080000
dup_frames=0
drop_frames=0
speed= 1.2x
progress=continue
frame= 1318 fps= 29 q=23.0 size=   31488KiB time=00:00:52.76 bitrate=4889.1kbits/s speed=1.17x    
frame=1318
fps=29.13
stream_0_0_q=23.0
bitrate=4889.1kbits/s
total_size=32243760
out_time_us=52760000
out_time_ms=52760000
out_time=00:00:52.760000
dup_frames=0
drop_frames=0
speed=1.17x
progress=continue
frame= 1431 fps= 28 q=23.0 size=   36096KiB time=00:00:57.16 bitrate=5173.2kbits/s speed=1.14x    
frame=1431
fps=28.46
stream_0_0_q=23.0
bitrate=5173.2kbits/s
total_size=36962352
out_time_us=57160000
out_time_ms=57160000
out_time=00:00:57.160000
dup_frames=0
drop_frames=0
speed=1.14x
progress=continue
frame= 1528 fps= 28 q=23.0 size=   41216KiB time=00:01:01.16 bitrate=5520.6kbits/s speed= 1.1x    
frame=1528
fps=27.58
stream_0_0_q=23.0
bitrate=5520.6kbits/s
total_size=42205232
out_time_us=61160000
out_time_ms=61160000
out_time=00:01:01.160000
dup_frames=0
drop_frames=0
speed= 1.1x
progress=continue
frame= 1615 fps= 27 q=20.0 size=   45568KiB time=00:01:04.60 bitrate=5778.5kbits/s speed=1.07x    
frame=1615
fps=26.72
stream_0_0_q=20.0
bitrate=5778.5kbits/s
total_size=46661680
out_time_us=64600000
out_time_ms=64600000
out_time=00:01:04.600000
dup_frames=0
drop_frames=0
speed=1.07x
progress=continue
frame= 1719 fps= 26 q=23.0 size=   50688KiB time=00:01:08.80 bitrate=6035.4kbits/s speed=1.05x    
frame=1719
fps=26.25
stream_0_0_q=23.0
bitrate=6035.4kbits/s
total_size=51904560
out_time_us=68800000
out_time_ms=68800000
out_time=00:01:08.800000
dup_frames=0
drop_frames=0
speed=1.05x
progress=continue
frame= 1841 fps= 26 q=23.0 size=   55296KiB time=00:01:13.68 bitrate=6148.0kbits/s speed=1.05x    
frame=1841
fps=26.11
stream_0_0_q=23.0
bitrate=6148.0kbits/s
total_size=56623152
out_time_us=73680000
out_time_ms=73680000
out_time=00:01:13.680000
dup_frames=0
drop_frames=0
speed=1.05x
progress=continue
frame= 1959 fps= 26 q=23.0 size=   59392KiB time=00:01:18.40 bitrate=6205.9kbits/s speed=1.04x    
frame=1959
fps=25.94
stream_0_0_q=23.0
bitrate=6205.9kbits/s
total_size=60817456
out_time_us=78400000
out_time_ms=78400000
out_time=00:01:18.400000
dup_frames=0
drop_frames=0
speed=1.04x
progress=continue
frame= 2062 fps= 26 q=23.0 size=   63488KiB time=00:01:22.52 bitrate=6302.6kbits/s speed=1.02x    
frame=2062
fps=25.60
stream_0_0_q=23.0
bitrate=6302.6kbits/s
total_size=65011760
out_time_us=82520000
out_time_ms=82520000
out_time=00:01:22.520000
dup_frames=0
drop_frames=0
speed=1.02x
progress=continue
frame= 2172 fps= 25 q=23.0 size=   67584KiB time=00:01:26.92 bitrate=6369.6kbits/s speed=1.02x    
frame=2172
fps=25.38
stream_0_0_q=23.0
bitrate=6369.6kbits/s
total_size=69206064
out_time_us=86920000
out_time_ms=86920000
out_time=00:01:26.920000
dup_frames=0
drop_frames=0
speed=1.02x
progress=continue
frame= 2299 fps= 25 q=23.0 size=   71680KiB time=00:01:31.96 bitrate=6385.4kbits/s speed=1.02x    
frame=2299
fps=25.38
stream_0_0_q=23.0
bitrate=6385.4kbits/s
total_size=73400368
out_time_us=91960000
out_time_ms=91960000
out_time=00:01:31.960000
dup_frames=0
drop_frames=0
speed=1.02x
progress=continue
frame= 2434 fps= 25 q=23.0 size=   76800KiB time=00:01:37.40 bitrate=6459.4kbits/s speed=1.02x    
frame=2434
fps=25.46
stream_0_0_q=23.0
bitrate=6459.4kbits/s
total_size=78643248
out_time_us=97400000
out_time_ms=97400000
out_time=00:01:37.400000
dup_frames=0
drop_frames=0
speed=1.02x
progress=continue
frame= 2561 fps= 25 q=23.0 size=   80640KiB time=00:01:42.48 bitrate=6446.2kbits/s speed=1.02x    
frame=2561
fps=25.45
stream_0_0_q=23.0
bitrate=6446.2kbits/s
total_size=82575408
out_time_us=102480000
out_time_ms=102480000
out_time=00:01:42.480000
dup_frames=0
drop_frames=0
speed=1.02x
progress=continue
frame= 2695 fps= 26 q=23.0 size=   84992KiB time=00:01:47.80 bitrate=6458.8kbits/s speed=1.02x    
frame=2695
fps=25.51
stream_0_0_q=23.0
bitrate=6458.8kbits/s
total_size=87031856
out_time_us=107800000
out_time_ms=107800000
out_time=00:01:47.800000
dup_frames=0
drop_frames=0
speed=1.02x
progress=continue
frame= 2948 fps= 27 q=23.0 size=   89088KiB time=00:01:57.96 bitrate=6186.9kbits/s speed=1.07x    
frame=2948
fps=26.62
stream_0_0_q=23.0
bitrate=6186.9kbits/s
total_size=91226160
out_time_us=117960000
out_time_ms=117960000
out_time=00:01:57.960000
dup_frames=0
drop_frames=0
speed=1.07x
progress=continue
frame= 3056 fps= 26 q=23.0 size=   97280KiB time=00:02:02.24 bitrate=6519.3kbits/s speed=1.06x    
frame=3056
fps=26.39
stream_0_0_q=23.0
bitrate=6519.3kbits/s
total_size=99614768
out_time_us=122240000
out_time_ms=122240000
out_time=00:02:02.240000
dup_frames=0
drop_frames=0
speed=1.06x
progress=continue
frame= 3177 fps= 26 q=23.0 size=  106240KiB time=00:02:07.12 bitrate=6846.4kbits/s speed=1.05x    
frame=3177
fps=26.29
stream_0_0_q=23.0
bitrate=6846.4kbits/s
total_size=108789808
out_time_us=127120000
out_time_ms=127120000
out_time=00:02:07.120000
dup_frames=0
drop_frames=0
speed=1.05x
progress=continue
frame= 3317 fps= 26 q=23.0 size=  110080KiB time=00:02:12.72 bitrate=6794.6kbits/s speed=1.05x    
frame=3317
fps=26.35
stream_0_0_q=23.0
bitrate=6794.6kbits/s
total_size=112721968
out_time_us=132720000
out_time_ms=132720000
out_time=00:02:12.720000
dup_frames=0
drop_frames=0
speed=1.05x
progress=continue
frame= 3464 fps= 26 q=23.0 size=  113664KiB time=00:02:18.60 bitrate=6718.2kbits/s speed=1.06x    
frame=3464
fps=26.46
stream_0_0_q=23.0
bitrate=6718.2kbits/s
total_size=116391984
out_time_us=138600000
out_time_ms=138600000
out_time=00:02:18.600000
dup_frames=0
drop_frames=0
speed=1.06x
progress=continue
frame= 3589 fps= 26 q=23.0 size=  116992KiB time=00:02:23.52 bitrate=6677.8kbits/s speed=1.06x    
frame=3589
fps=26.40
stream_0_0_q=23.0
bitrate=6677.8kbits/s
total_size=119799856
out_time_us=143520000
out_time_ms=143520000
out_time=00:02:23.520000
dup_frames=0
drop_frames=0
speed=1.06x
progress=continue
frame= 3729 fps= 26 q=23.0 size=  121344KiB time=00:02:28.92 bitrate=6675.1kbits/s speed=1.06x    
frame=3729
fps=26.44
stream_0_0_q=23.0
bitrate=6675.1kbits/s
total_size=124256304
out_time_us=148920000
out_time_ms=148920000
out_time=00:02:28.920000
dup_frames=0
drop_frames=0
speed=1.06x
progress=continue
frame= 3848 fps= 26 q=23.0 size=  124928KiB time=00:02:33.96 bitrate=6647.2kbits/s speed=1.05x    
frame=3848
fps=26.33
stream_0_0_q=23.0
bitrate=6647.2kbits/s
total_size=127926320
out_time_us=153960000
out_time_ms=153960000
out_time=00:02:33.960000
dup_frames=0
drop_frames=0
speed=1.05x
progress=continue
frame= 3971 fps= 26 q=23.0 size=  128512KiB time=00:02:38.80 bitrate=6629.5kbits/s speed=1.05x    
frame=3971
fps=26.26
stream_0_0_q=23.0
bitrate=6629.5kbits/s
total_size=131596336
out_time_us=158800000
out_time_ms=158800000
out_time=00:02:38.800000
dup_frames=0
drop_frames=0
speed=1.05x
progress=continue
frame= 4117 fps= 26 q=23.0 size=  131584KiB time=00:02:44.64 bitrate=6547.2kbits/s speed=1.05x    
frame=4117
fps=26.34
stream_0_0_q=23.0
bitrate=6547.2kbits/s
total_size=134742064
out_time_us=164640000
out_time_ms=164640000
out_time=00:02:44.640000
dup_frames=0
drop_frames=0
speed=1.05x
progress=continue
frame= 4256 fps= 26 q=23.0 size=  134912KiB time=00:02:50.28 bitrate=6490.5kbits/s speed=1.06x    
frame=4256
fps=26.37
stream_0_0_q=23.0
bitrate=6490.5kbits/s
total_size=138149936
out_time_us=170280000
out_time_ms=170280000
out_time=00:02:50.280000
dup_frames=0
drop_frames=0
speed=1.06x
progress=continue
frame= 4392 fps= 26 q=23.0 size=  137728KiB time=00:02:55.72 bitrate=6420.8kbits/s speed=1.06x    
frame=4392
fps=26.40
stream_0_0_q=23.0
bitrate=6420.8kbits/s
total_size=141033520
out_time_us=175720000
out_time_ms=175720000
out_time=00:02:55.720000
dup_frames=0
drop_frames=0
speed=1.06x
progress=continue
frame= 4529 fps= 26 q=23.0 size=  141056KiB time=00:03:01.20 bitrate=6377.1kbits/s speed=1.06x    
frame=4529
fps=26.42
stream_0_0_q=23.0
bitrate=6377.1kbits/s
total_size=144441392
out_time_us=181200000
out_time_ms=181200000
out_time=00:03:01.200000
dup_frames=0
drop_frames=0
speed=1.06x
progress=continue
frame= 4656 fps= 26 q=23.0 size=  144896KiB time=00:03:06.28 bitrate=6372.1kbits/s speed=1.06x    
frame=4656
fps=26.38
stream_0_0_q=23.0
bitrate=6372.1kbits/s
total_size=148373552
out_time_us=186280000
out_time_ms=186280000
out_time=00:03:06.280000
dup_frames=0
drop_frames=0
speed=1.06x
progress=continue
frame= 4811 fps= 26 q=23.0 size=  148224KiB time=00:03:12.48 bitrate=6308.5kbits/s speed=1.06x    
frame=4811
fps=26.49
stream_0_0_q=23.0
bitrate=6308.5kbits/s
total_size=151781424
out_time_us=192480000
out_time_ms=192480000
out_time=00:03:12.480000
dup_frames=0
drop_frames=0
speed=1.06x
progress=continue
frame= 4966 fps= 27 q=23.0 size=  151296KiB time=00:03:18.68 bitrate=6238.3kbits/s speed=1.06x    
frame=4966
fps=26.61
stream_0_0_q=23.0
bitrate=6238.3kbits/s
total_size=154927152
out_time_us=198680000
out_time_ms=198680000
out_time=00:03:18.680000
dup_frames=0
drop_frames=0
speed=1.06x
progress=continue
frame= 5086 fps= 27 q=23.0 size=  155136KiB time=00:03:23.36 bitrate=6249.4kbits/s speed=1.06x    
frame=5086
fps=26.54
stream_0_0_q=23.0
bitrate=6249.4kbits/s
total_size=158859312
out_time_us=203360000
out_time_ms=203360000
out_time=00:03:23.360000
dup_frames=0
drop_frames=0
speed=1.06x
progress=continue
frame= 5222 fps= 27 q=23.0 size=  158720KiB time=00:03:28.84 bitrate=6226.0kbits/s speed=1.06x    
frame=5222
fps=26.54
stream_0_0_q=23.0
bitrate=6226.0kbits/s
total_size=162529328
out_time_us=208840000
out_time_ms=208840000
out_time=00:03:28.840000
dup_frames=0
drop_frames=0
speed=1.06x
progress=continue
frame= 5356 fps= 27 q=23.0 size=  162560KiB time=00:03:34.20 bitrate=6217.0kbits/s speed=1.06x    
frame=5356
fps=26.53
stream_0_0_q=23.0
bitrate=6217.0kbits/s
total_size=166461488
out_time_us=214200000
out_time_ms=214200000
out_time=00:03:34.200000
dup_frames=0
drop_frames=0
speed=1.06x
progress=continue
frame= 5483 fps= 26 q=23.0 size=  166400KiB time=00:03:39.36 bitrate=6214.2kbits/s speed=1.06x    
frame=5483
fps=26.50
stream_0_0_q=23.0
bitrate=6214.2kbits/s
total_size=170393648
out_time_us=219360000
out_time_ms=219360000
out_time=00:03:39.360000
dup_frames=0
drop_frames=0
speed=1.06x
progress=continue
frame= 5628 fps= 27 q=23.0 size=  170240KiB time=00:03:45.16 bitrate=6193.8kbits/s speed=1.06x    
frame=5628
fps=26.55
stream_0_0_q=23.0
bitrate=6193.8kbits/s
total_size=174325808
out_time_us=225160000
out_time_ms=225160000
out_time=00:03:45.160000
dup_frames=0
drop_frames=0
speed=1.06x
progress=continue
frame= 5782 fps= 27 q=23.0 size=  173568KiB time=00:03:51.32 bitrate=6146.8kbits/s speed=1.07x    
frame=5782
fps=26.65
stream_0_0_q=23.0
bitrate=6146.8kbits/s
total_size=177733680
out_time_us=231320000
out_time_ms=231320000
out_time=00:03:51.320000
dup_frames=0
drop_frames=0
speed=1.07x
progress=continue
frame= 5956 fps= 27 q=23.0 size=  176896KiB time=00:03:58.28 bitrate=6081.6kbits/s speed=1.07x    
frame=5956
fps=26.83
stream_0_0_q=23.0
bitrate=6081.6kbits/s
total_size=181141552
out_time_us=238280000
out_time_ms=238280000
out_time=00:03:58.280000
dup_frames=0
drop_frames=0
speed=1.07x
progress=continue
frame= 6105 fps= 27 q=23.0 size=  180480KiB time=00:04:03.92 bitrate=6061.4kbits/s speed=1.07x    
frame=6105
fps=26.89
stream_0_0_q=23.0
bitrate=6061.4kbits/s
total_size=184811568
out_time_us=243920000
out_time_ms=243920000
out_time=00:04:03.920000
dup_frames=0
drop_frames=0
speed=1.07x
progress=continue
frame= 6243 fps= 27 q=23.0 size=  184064KiB time=00:04:09.76 bitrate=6037.2kbits/s speed=1.08x    
frame=6243
fps=26.90
stream_0_0_q=23.0
bitrate=6037.2kbits/s
total_size=188481584
out_time_us=249760000
out_time_ms=249760000
out_time=00:04:09.760000
dup_frames=0
drop_frames=0
speed=1.08x
progress=continue
frame= 6402 fps= 27 q=23.0 size=  188928KiB time=00:04:16.12 bitrate=6042.9kbits/s speed=1.08x    
frame=6402
fps=26.99
stream_0_0_q=23.0
bitrate=6042.9kbits/s
total_size=193462320
out_time_us=256120000
out_time_ms=256120000
out_time=00:04:16.120000
dup_frames=0
drop_frames=0
speed=1.08x
progress=continue
frame= 6542 fps= 27 q=23.0 size=  192768KiB time=00:04:21.72 bitrate=6033.8kbits/s speed=1.08x    
frame=6542
fps=27.00
stream_0_0_q=23.0
bitrate=6033.8kbits/s
total_size=197394480
out_time_us=261720000
out_time_ms=261720000
out_time=00:04:21.720000
dup_frames=0
drop_frames=0
speed=1.08x
progress=continue
frame= 6703 fps= 27 q=23.0 size=  196096KiB time=00:04:28.04 bitrate=5993.2kbits/s speed=1.08x    
frame=6703
fps=27.11
stream_0_0_q=23.0
bitrate=5993.2kbits/s
total_size=200802352
out_time_us=268040000
out_time_ms=268040000
out_time=00:04:28.040000
dup_frames=0
drop_frames=0
speed=1.08x
progress=continue
frame= 6846 fps= 27 q=23.0 size=  198912KiB time=00:04:33.88 bitrate=5949.6kbits/s speed=1.09x    
frame=6846
fps=27.13
stream_0_0_q=23.0
bitrate=5949.6kbits/s
total_size=203685936
out_time_us=273880000
out_time_ms=273880000
out_time=00:04:33.880000
dup_frames=0
drop_frames=0
speed=1.09x
progress=continue
frame= 6998 fps= 27 q=23.0 size=  202752KiB time=00:04:39.96 bitrate=5932.8kbits/s speed=1.09x    
frame=6998
fps=27.19
stream_0_0_q=23.0
bitrate=5932.8kbits/s
total_size=207618096
out_time_us=279960000
out_time_ms=279960000
out_time=00:04:39.960000
dup_frames=0
drop_frames=0
speed=1.09x
progress=continue
frame= 7163 fps= 27 q=23.0 size=  207104KiB time=00:04:46.56 bitrate=5920.6kbits/s speed=1.09x    
frame=7163
fps=27.30
stream_0_0_q=23.0
bitrate=5920.6kbits/s
total_size=212074544
out_time_us=286560000
out_time_ms=286560000
out_time=00:04:46.560000
dup_frames=0
drop_frames=0
speed=1.09x
progress=continue
frame= 7314 fps= 27 q=23.0 size=  211968KiB time=00:04:52.56 bitrate=5935.3kbits/s speed=1.09x    
frame=7314
fps=27.35
stream_0_0_q=23.0
bitrate=5935.3kbits/s
total_size=217055280
out_time_us=292560000
out_time_ms=292560000
out_time=00:04:52.560000
dup_frames=0
drop_frames=0
speed=1.09x
progress=continue
frame= 7454 fps= 27 q=23.0 size=  216064KiB time=00:04:58.20 bitrate=5935.6kbits/s speed=1.09x    
frame=7454
fps=27.35
stream_0_0_q=23.0
bitrate=5935.6kbits/s
total_size=221249584
out_time_us=298200000
out_time_ms=298200000
out_time=00:04:58.200000
dup_frames=0
drop_frames=0
speed=1.09x
progress=continue
frame= 7590 fps= 27 q=20.0 size=  222720KiB time=00:05:03.64 bitrate=6008.8kbits/s speed=1.09x    
frame=7590
fps=27.35
stream_0_0_q=20.0
bitrate=6008.8kbits/s
total_size=228065328
out_time_us=303640000
out_time_ms=303640000
out_time=00:05:03.640000
dup_frames=0
drop_frames=0
speed=1.09x
progress=continue
frame= 7758 fps= 27 q=23.0 size=  227584KiB time=00:05:10.36 bitrate=6007.1kbits/s speed= 1.1x    
frame=7758
fps=27.45
stream_0_0_q=23.0
bitrate=6007.1kbits/s
total_size=233046064
out_time_us=310360000
out_time_ms=310360000
out_time=00:05:10.360000
dup_frames=0
drop_frames=0
speed= 1.1x
progress=continue
frame= 7910 fps= 28 q=23.0 size=  231680KiB time=00:05:16.44 bitrate=5997.7kbits/s speed= 1.1x    
frame=7910
fps=27.50
stream_0_0_q=23.0
bitrate=5997.7kbits/s
total_size=237240368
out_time_us=316440000
out_time_ms=316440000
out_time=00:05:16.440000
dup_frames=0
drop_frames=0
speed= 1.1x
progress=continue
frame= 8062 fps= 28 q=23.0 size=  235264KiB time=00:05:22.52 bitrate=5975.7kbits/s speed= 1.1x    
frame=8062
fps=27.55
stream_0_0_q=23.0
bitrate=5975.7kbits/s
total_size=240910384
out_time_us=322520000
out_time_ms=322520000
out_time=00:05:22.520000
dup_frames=0
drop_frames=0
speed= 1.1x
progress=continue
frame= 8228 fps= 28 q=23.0 size=  238592KiB time=00:05:29.16 bitrate=5938.0kbits/s speed=1.11x    
frame=8228
fps=27.65
stream_0_0_q=23.0
bitrate=5938.0kbits/s
total_size=244318256
out_time_us=329160000
out_time_ms=329160000
out_time=00:05:29.160000
dup_frames=0
drop_frames=0
speed=1.11x
progress=continue
frame= 8379 fps= 28 q=23.0 size=  241664KiB time=00:05:35.20 bitrate=5906.1kbits/s speed=1.11x    
frame=8379
fps=27.69
stream_0_0_q=23.0
bitrate=5906.1kbits/s
total_size=247463984
out_time_us=335200000
out_time_ms=335200000
out_time=00:05:35.200000
dup_frames=0
drop_frames=0
speed=1.11x
progress=continue
frame= 8533 fps= 28 q=23.0 size=  245248KiB time=00:05:41.36 bitrate=5885.5kbits/s speed=1.11x    
frame=8533
fps=27.74
stream_0_0_q=23.0
bitrate=5885.5kbits/s
total_size=251134000
out_time_us=341360000
out_time_ms=341360000
out_time=00:05:41.360000
dup_frames=0
drop_frames=0
speed=1.11x
progress=continue
frame= 8663 fps= 28 q=23.0 size=  249088KiB time=00:05:46.52 bitrate=5888.6kbits/s speed=1.11x    
frame=8663
fps=27.71
stream_0_0_q=23.0
bitrate=5888.6kbits/s
total_size=255066160
out_time_us=346520000
out_time_ms=346520000
out_time=00:05:46.520000
dup_frames=0
drop_frames=0
speed=1.11x
progress=continue
frame= 8803 fps= 28 q=23.0 size=  255488KiB time=00:05:52.16 bitrate=5943.2kbits/s speed=1.11x    
frame=8803
fps=27.71
stream_0_0_q=23.0
bitrate=5943.2kbits/s
total_size=261619760
out_time_us=352160000
out_time_ms=352160000
out_time=00:05:52.160000
dup_frames=0
drop_frames=0
speed=1.11x
progress=continue
frame= 8939 fps= 28 q=23.0 size=  261888KiB time=00:05:57.60 bitrate=5999.4kbits/s speed=1.11x    
frame=8939
fps=27.70
stream_0_0_q=23.0
bitrate=5999.4kbits/s
total_size=268173360
out_time_us=357600000
out_time_ms=357600000
out_time=00:05:57.600000
dup_frames=0
drop_frames=0
speed=1.11x
progress=continue
frame= 9073 fps= 28 q=23.0 size=  266240KiB time=00:06:02.92 bitrate=6009.7kbits/s speed=1.11x    
frame=9073
fps=27.68
stream_0_0_q=23.0
bitrate=6009.7kbits/s
total_size=272629808
out_time_us=362920000
out_time_ms=362920000
out_time=00:06:02.920000
dup_frames=0
drop_frames=0
speed=1.11x
progress=continue
frame= 9217 fps= 28 q=23.0 size=  270080KiB time=00:06:08.64 bitrate=6001.8kbits/s speed=1.11x    
frame=9217
fps=27.69
stream_0_0_q=23.0
bitrate=6001.8kbits/s
total_size=276561968
out_time_us=368640000
out_time_ms=368640000
out_time=00:06:08.640000
dup_frames=0
drop_frames=0
speed=1.11x
progress=continue
frame= 9358 fps= 28 q=23.0 size=  273920KiB time=00:06:14.36 bitrate=5994.1kbits/s speed=1.11x    
frame=9358
fps=27.69
stream_0_0_q=23.0
bitrate=5994.1kbits/s
total_size=280494128
out_time_us=374360000
out_time_ms=374360000
out_time=00:06:14.360000
dup_frames=0
drop_frames=0
speed=1.11x
progress=continue
frame= 9505 fps= 28 q=23.0 size=  277760KiB time=00:06:20.24 bitrate=5984.1kbits/s speed=1.11x    
frame=9505
fps=27.71
stream_0_0_q=23.0
bitrate=5984.1kbits/s
total_size=284426288
out_time_us=380240000
out_time_ms=380240000
out_time=00:06:20.240000
dup_frames=0
drop_frames=0
speed=1.11x
progress=continue
frame= 9655 fps= 28 q=23.0 size=  282112KiB time=00:06:26.12 bitrate=5985.3kbits/s speed=1.11x    
frame=9655
fps=27.74
stream_0_0_q=23.0
bitrate=5985.3kbits/s
total_size=288882736
out_time_us=386120000
out_time_ms=386120000
out_time=00:06:26.120000
dup_frames=0
drop_frames=0
speed=1.11x
progress=continue
frame= 9787 fps= 28 q=23.0 size=  285440KiB time=00:06:31.48 bitrate=5973.0kbits/s speed=1.11x    
frame=9787
fps=27.71
stream_0_0_q=23.0
bitrate=5973.0kbits/s
total_size=292290608
out_time_us=391480000
out_time_ms=391480000
out_time=00:06:31.480000
dup_frames=0
drop_frames=0
speed=1.11x
progress=continue
frame= 9940 fps= 28 q=20.0 size=  289024KiB time=00:06:37.64 bitrate=5954.3kbits/s speed=1.11x    
frame=9940
fps=27.75
stream_0_0_q=20.0
bitrate=5954.3kbits/s
total_size=295960624
out_time_us=397640000
out_time_ms=397640000
out_time=00:06:37.640000
dup_frames=0
drop_frames=0
speed=1.11x
progress=continue
frame=10089 fps= 28 q=23.0 size=  293120KiB time=00:06:43.56 bitrate=5950.1kbits/s speed=1.11x    
frame=10089
fps=27.78
stream_0_0_q=23.0
bitrate=5950.1kbits/s
total_size=300154928
out_time_us=403560000
out_time_ms=403560000
out_time=00:06:43.560000
dup_frames=0
drop_frames=0
speed=1.11x
progress=continue
frame=10258 fps= 28 q=23.0 size=  296704KiB time=00:06:50.24 bitrate=5924.8kbits/s speed=1.11x    
frame=10258
fps=27.85
stream_0_0_q=23.0
bitrate=5924.8kbits/s
total_size=303824944
out_time_us=410240000
out_time_ms=410240000
out_time=00:06:50.240000
dup_frames=0
drop_frames=0
speed=1.11x
progress=continue
frame=10424 fps= 28 q=23.0 size=  300032KiB time=00:06:56.84 bitrate=5896.4kbits/s speed=1.12x    
frame=10424
fps=27.92
stream_0_0_q=23.0
bitrate=5896.4kbits/s
total_size=307232816
out_time_us=416840000
out_time_ms=416840000
out_time=00:06:56.840000
dup_frames=0
drop_frames=0
speed=1.12x
progress=continue
frame=10548 fps= 28 q=23.0 size=  303360KiB time=00:07:01.96 bitrate=5889.5kbits/s speed=1.11x    
frame=10548
fps=27.87
stream_0_0_q=23.0
bitrate=5889.5kbits/s
total_size=310640688
out_time_us=421960000
out_time_ms=421960000
out_time=00:07:01.960000
dup_frames=0
drop_frames=0
speed=1.11x
progress=continue
frame=10683 fps= 28 q=23.0 size=  306944KiB time=00:07:07.36 bitrate=5883.8kbits/s speed=1.11x    
frame=10683
fps=27.86
stream_0_0_q=23.0
bitrate=5883.8kbits/s
total_size=314310704
out_time_us=427360000
out_time_ms=427360000
out_time=00:07:07.360000
dup_frames=0
drop_frames=0
speed=1.11x
progress=continue
frame=10843 fps= 28 q=23.0 size=  310528KiB time=00:07:13.76 bitrate=5864.6kbits/s speed=1.12x    
frame=10843
fps=27.91
stream_0_0_q=23.0
bitrate=5864.6kbits/s
total_size=317980720
out_time_us=433760000
out_time_ms=433760000
out_time=00:07:13.760000
dup_frames=0
drop_frames=0
speed=1.12x
progress=continue
frame=10996 fps= 28 q=23.0 size=  314112KiB time=00:07:19.88 bitrate=5849.8kbits/s speed=1.12x    
frame=10996
fps=27.94
stream_0_0_q=23.0
bitrate=5849.8kbits/s
total_size=321650736
out_time_us=439880000
out_time_ms=439880000
out_time=00:07:19.880000
dup_frames=0
drop_frames=0
speed=1.12x
progress=continue
frame=11141 fps= 28 q=23.0 size=  317696KiB time=00:07:25.68 bitrate=5839.5kbits/s speed=1.12x    
frame=11141
fps=27.95
stream_0_0_q=23.0
bitrate=5839.5kbits/s
total_size=325320752
out_time_us=445680000
out_time_ms=445680000
out_time=00:07:25.680000
dup_frames=0
drop_frames=0
speed=1.12x
progress=continue
frame=11282 fps= 28 q=23.0 size=  321280KiB time=00:07:31.32 bitrate=5831.6kbits/s speed=1.12x    
frame=11282
fps=27.96
stream_0_0_q=23.0
bitrate=5831.6kbits/s
total_size=328990768
out_time_us=451320000
out_time_ms=451320000
out_time=00:07:31.320000
dup_frames=0
drop_frames=0
speed=1.12x
progress=continue
frame=11405 fps= 28 q=23.0 size=  325376KiB time=00:07:36.24 bitrate=5842.3kbits/s speed=1.12x    
frame=11405
fps=27.91
stream_0_0_q=23.0
bitrate=5842.3kbits/s
total_size=333185072
out_time_us=456240000
out_time_ms=456240000
out_time=00:07:36.240000
dup_frames=0
drop_frames=0
speed=1.12x
progress=continue
frame=11523 fps= 28 q=23.0 size=  328960KiB time=00:07:40.92 bitrate=5846.7kbits/s speed=1.11x    
frame=11523
fps=27.86
stream_0_0_q=23.0
bitrate=5846.7kbits/s
total_size=336855088
out_time_us=460920000
out_time_ms=460920000
out_time=00:07:40.920000
dup_frames=0
drop_frames=0
speed=1.11x
progress=continue
frame=11646 fps= 28 q=23.0 size=  332800KiB time=00:07:45.72 bitrate=5853.9kbits/s speed=1.11x    
frame=11646
fps=27.82
stream_0_0_q=23.0
bitrate=5853.9kbits/s
total_size=340787248
out_time_us=465720000
out_time_ms=465720000
out_time=00:07:45.720000
dup_frames=0
drop_frames=0
speed=1.11x
progress=continue
frame=11787 fps= 28 q=23.0 size=  336128KiB time=00:07:51.52 bitrate=5839.8kbits/s speed=1.11x    
frame=11787
fps=27.81
stream_0_0_q=23.0
bitrate=5839.8kbits/s
total_size=344195120
out_time_us=471520000
out_time_ms=471520000
out_time=00:07:51.520000
dup_frames=0
drop_frames=0
speed=1.11x
progress=continue
frame=11924 fps= 28 q=23.0 size=  339456KiB time=00:07:56.88 bitrate=5831.3kbits/s speed=1.11x    
frame=11924
fps=27.81
stream_0_0_q=23.0
bitrate=5831.3kbits/s
total_size=347602992
out_time_us=476880000
out_time_ms=476880000
out_time=00:07:56.880000
dup_frames=0
drop_frames=0
speed=1.11x
progress=continue
frame=12057 fps= 28 q=23.0 size=  342784KiB time=00:08:02.32 bitrate=5822.0kbits/s speed=1.11x    
frame=12057
fps=27.79
stream_0_0_q=23.0
bitrate=5822.0kbits/s
total_size=351010864
out_time_us=482320000
out_time_ms=482320000
out_time=00:08:02.320000
dup_frames=0
drop_frames=0
speed=1.11x
progress=continue
frame=12181 fps= 28 q=23.0 size=  345600KiB time=00:08:07.28 bitrate=5810.1kbits/s speed=1.11x    
frame=12181
fps=27.75
stream_0_0_q=23.0
bitrate=5810.1kbits/s
total_size=353894448
out_time_us=487280000
out_time_ms=487280000
out_time=00:08:07.280000
dup_frames=0
drop_frames=0
speed=1.11x
progress=continue
frame=12330 fps= 28 q=23.0 size=  348672KiB time=00:08:13.20 bitrate=5791.4kbits/s speed=1.11x    
frame=12330
fps=27.77
stream_0_0_q=23.0
bitrate=5791.4kbits/s
total_size=357040176
out_time_us=493200000
out_time_ms=493200000
out_time=00:08:13.200000
dup_frames=0
drop_frames=0
speed=1.11x
progress=continue
frame=12473 fps= 28 q=23.0 size=  351744KiB time=00:08:18.88 bitrate=5775.9kbits/s speed=1.11x    
frame=12473
fps=27.78
stream_0_0_q=23.0
bitrate=5775.9kbits/s
total_size=360185904
out_time_us=498880000
out_time_ms=498880000
out_time=00:08:18.880000
dup_frames=0
drop_frames=0
speed=1.11x
progress=continue
frame=12616 fps= 28 q=23.0 size=  354816KiB time=00:08:24.64 bitrate=5759.9kbits/s speed=1.11x    
frame=12616
fps=27.78
stream_0_0_q=23.0
bitrate=5759.9kbits/s
total_size=363331632
out_time_us=504640000
out_time_ms=504640000
out_time=00:08:24.640000
dup_frames=0
drop_frames=0
speed=1.11x
progress=continue
frame=12777 fps= 28 q=23.0 size=  358144KiB time=00:08:31.12 bitrate=5740.2kbits/s speed=1.11x    
frame=12777
fps=27.82
stream_0_0_q=23.0
bitrate=5740.2kbits/s
total_size=366739504
out_time_us=511120000
out_time_ms=511120000
out_time=00:08:31.120000
dup_frames=0
drop_frames=0
speed=1.11x
progress=continue
frame=12919 fps= 28 q=23.0 size=  360960KiB time=00:08:36.76 bitrate=5722.2kbits/s speed=1.11x    
frame=12919
fps=27.83
stream_0_0_q=23.0
bitrate=5722.2kbits/s
total_size=369623088
out_time_us=516760000
out_time_ms=516760000
out_time=00:08:36.760000
dup_frames=0
drop_frames=0
speed=1.11x
progress=continue
frame=13070 fps= 28 q=23.0 size=  364288KiB time=00:08:42.80 bitrate=5708.2kbits/s speed=1.11x    
frame=13070
fps=27.85
stream_0_0_q=23.0
bitrate=5708.2kbits/s
total_size=373030960
out_time_us=522800000
out_time_ms=522800000
out_time=00:08:42.800000
dup_frames=0
drop_frames=0
speed=1.11x
progress=continue
frame=13221 fps= 28 q=23.0 size=  367360KiB time=00:08:48.80 bitrate=5691.0kbits/s speed=1.11x    
frame=13221
fps=27.87
stream_0_0_q=23.0
bitrate=5691.0kbits/s
total_size=376176688
out_time_us=528800000
out_time_ms=528800000
out_time=00:08:48.800000
dup_frames=0
drop_frames=0
speed=1.11x
progress=continue
frame=13360 fps= 28 q=23.0 size=  370432KiB time=00:08:54.44 bitrate=5678.1kbits/s speed=1.11x    
frame=13360
fps=27.87
stream_0_0_q=23.0
bitrate=5678.1kbits/s
total_size=379322416
out_time_us=534440000
out_time_ms=534440000
out_time=00:08:54.440000
dup_frames=0
drop_frames=0
speed=1.11x
progress=continue
frame=13519 fps= 28 q=23.0 size=  373248KiB time=00:09:00.80 bitrate=5653.9kbits/s speed=1.12x    
frame=13519
fps=27.90
stream_0_0_q=23.0
bitrate=5653.9kbits/s
total_size=382206000
out_time_us=540800000
out_time_ms=540800000
out_time=00:09:00.800000
dup_frames=0
drop_frames=0
speed=1.12x
progress=continue
frame=13678 fps= 28 q=23.0 size=  376064KiB time=00:09:07.16 bitrate=5630.4kbits/s speed=1.12x    
frame=13678
fps=27.94
stream_0_0_q=23.0
bitrate=5630.4kbits/s
total_size=385089584
out_time_us=547160000
out_time_ms=547160000
out_time=00:09:07.160000
dup_frames=0
drop_frames=0
speed=1.12x
progress=continue
frame=13843 fps= 28 q=23.0 size=  378880KiB time=00:09:13.76 bitrate=5604.9kbits/s speed=1.12x    
frame=13843
fps=27.99
stream_0_0_q=23.0
bitrate=5604.9kbits/s
total_size=387973168
out_time_us=553760000
out_time_ms=553760000
out_time=00:09:13.760000
dup_frames=0
drop_frames=0
speed=1.12x
progress=continue
frame=14007 fps= 28 q=23.0 size=  382464KiB time=00:09:20.28 bitrate=5592.1kbits/s speed=1.12x    
frame=14007
fps=28.04
stream_0_0_q=23.0
bitrate=5592.1kbits/s
total_size=391643184
out_time_us=560280000
out_time_ms=560280000
out_time=00:09:20.280000
dup_frames=0
drop_frames=0
speed=1.12x
progress=continue
frame=14286 fps= 28 q=23.0 size=  385792KiB time=00:09:31.44 bitrate=5530.6kbits/s speed=1.13x    
frame=14286
fps=28.31
stream_0_0_q=23.0
bitrate=5530.6kbits/s
total_size=395051056
out_time_us=571440000
out_time_ms=571440000
out_time=00:09:31.440000
dup_frames=0
drop_frames=0
speed=1.13x
progress=continue
frame=14504 fps= 28 q=23.0 size=  388608KiB time=00:09:40.16 bitrate=5487.2kbits/s speed=1.14x    
frame=14504
fps=28.46
stream_0_0_q=23.0
bitrate=5487.2kbits/s
total_size=397934640
out_time_us=580160000
out_time_ms=580160000
out_time=00:09:40.160000
dup_frames=0
drop_frames=0
speed=1.14x
progress=continue
frame=14684 fps= 29 q=23.0 size=  391168KiB time=00:09:47.40 bitrate=5455.3kbits/s speed=1.14x    
frame=14684
fps=28.53
stream_0_0_q=23.0
bitrate=5455.3kbits/s
total_size=400556080
out_time_us=587400000
out_time_ms=587400000
out_time=00:09:47.400000
dup_frames=0
drop_frames=0
speed=1.14x
progress=continue
frame=14860 fps= 29 q=23.0 size=  394240KiB time=00:09:54.40 bitrate=5433.4kbits/s speed=1.14x    
frame=14860
fps=28.59
stream_0_0_q=23.0
bitrate=5433.4kbits/s
total_size=403701808
out_time_us=594400000
out_time_ms=594400000
out_time=00:09:54.400000
dup_frames=0
drop_frames=0
speed=1.14x
progress=continue
frame=15036 fps= 29 q=23.0 size=  397568KiB time=00:10:01.44 bitrate=5415.1kbits/s speed=1.15x    
frame=15036
fps=28.65
stream_0_0_q=23.0
bitrate=5415.1kbits/s
total_size=407109680
out_time_us=601440000
out_time_ms=601440000
out_time=00:10:01.440000
dup_frames=0
drop_frames=0
speed=1.15x
progress=continue
frame=15254 fps= 29 q=23.0 size=  400640KiB time=00:10:10.16 bitrate=5379.0kbits/s speed=1.15x    
frame=15254
fps=28.79
stream_0_0_q=23.0
bitrate=5379.0kbits/s
total_size=410255408
out_time_us=610160000
out_time_ms=610160000
out_time=00:10:10.160000
dup_frames=0
drop_frames=0
speed=1.15x
progress=continue
frame=15468 fps= 29 q=23.0 size=  403200KiB time=00:10:18.76 bitrate=5338.1kbits/s speed=1.16x    
frame=15468
fps=28.92
stream_0_0_q=23.0
bitrate=5338.1kbits/s
total_size=412876848
out_time_us=618760000
out_time_ms=618760000
out_time=00:10:18.760000
dup_frames=0
drop_frames=0
speed=1.16x
progress=continue
frame=15680 fps= 29 q=23.0 size=  406016KiB time=00:10:27.24 bitrate=5302.7kbits/s speed=1.16x    
frame=15680
fps=29.05
stream_0_0_q=23.0
bitrate=5302.7kbits/s
total_size=415760432
out_time_us=627240000
out_time_ms=627240000
out_time=00:10:27.240000
dup_frames=0
drop_frames=0
speed=1.16x
progress=continue
frame=15854 fps= 29 q=23.0 size=  408832KiB time=00:10:34.12 bitrate=5281.6kbits/s speed=1.16x    
frame=15854
fps=29.10
stream_0_0_q=23.0
bitrate=5281.6kbits/s
total_size=418644016
out_time_us=634120000
out_time_ms=634120000
out_time=00:10:34.120000
dup_frames=0
drop_frames=0
speed=1.16x
progress=continue
frame=16020 fps= 29 q=23.0 size=  411904KiB time=00:10:40.84 bitrate=5265.5kbits/s speed=1.17x    
frame=16020
fps=29.13
stream_0_0_q=23.0
bitrate=5265.5kbits/s
total_size=421789744
out_time_us=640840000
out_time_ms=640840000
out_time=00:10:40.840000
dup_frames=0
drop_frames=0
speed=1.17x
progress=continue
frame=16215 fps= 29 q=20.0 size=  414464KiB time=00:10:48.64 bitrate=5234.5kbits/s speed=1.17x    
frame=16215
fps=29.22
stream_0_0_q=20.0
bitrate=5234.5kbits/s
total_size=424411184
out_time_us=648640000
out_time_ms=648640000
out_time=00:10:48.640000
dup_frames=0
drop_frames=0
speed=1.17x
progress=continue
frame=16362 fps= 29 q=23.0 size=  417280KiB time=00:10:54.52 bitrate=5222.7kbits/s speed=1.17x    
frame=16362
fps=29.22
stream_0_0_q=23.0
bitrate=5222.7kbits/s
total_size=427294768
out_time_us=654520000
out_time_ms=654520000
out_time=00:10:54.520000
dup_frames=0
drop_frames=0
speed=1.17x
progress=continue
frame=16516 fps= 29 q=23.0 size=  420096KiB time=00:11:00.68 bitrate=5208.9kbits/s speed=1.17x    
frame=16516
fps=29.23
stream_0_0_q=23.0
bitrate=5208.9kbits/s
total_size=430178352
out_time_us=660680000
out_time_ms=660680000
out_time=00:11:00.680000
dup_frames=0
drop_frames=0
speed=1.17x
progress=continue
frame=16698 fps= 29 q=23.0 size=  422656KiB time=00:11:07.96 bitrate=5183.5kbits/s speed=1.17x    
frame=16698
fps=29.29
stream_0_0_q=23.0
bitrate=5183.5kbits/s
total_size=432799792
out_time_us=667960000
out_time_ms=667960000
out_time=00:11:07.960000
dup_frames=0
drop_frames=0
speed=1.17x
progress=continue
frame=16897 fps= 29 q=23.0 size=  425216KiB time=00:11:15.92 bitrate=5153.5kbits/s speed=1.18x    
frame=16897
fps=29.38
stream_0_0_q=23.0
bitrate=5153.5kbits/s
total_size=435421232
out_time_us=675920000
out_time_ms=675920000
out_time=00:11:15.920000
dup_frames=0
drop_frames=0
speed=1.18x
progress=continue
frame=17083 fps= 29 q=23.0 size=  428288KiB time=00:11:23.32 bitrate=5134.5kbits/s speed=1.18x    
frame=17083
fps=29.45
stream_0_0_q=23.0
bitrate=5134.5kbits/s
total_size=438566960
out_time_us=683320000
out_time_ms=683320000
out_time=00:11:23.320000
dup_frames=0
drop_frames=0
speed=1.18x
progress=continue
frame=17239 fps= 29 q=23.0 size=  431104KiB time=00:11:29.60 bitrate=5121.2kbits/s speed=1.18x    
frame=17239
fps=29.46
stream_0_0_q=23.0
bitrate=5121.2kbits/s
total_size=441450544
out_time_us=689600000
out_time_ms=689600000
out_time=00:11:29.600000
dup_frames=0
drop_frames=0
speed=1.18x
progress=continue
frame=17407 fps= 29 q=23.0 size=  433920KiB time=00:11:36.32 bitrate=5104.9kbits/s speed=1.18x    
frame=17407
fps=29.49
stream_0_0_q=23.0
bitrate=5104.9kbits/s
total_size=444334128
out_time_us=696320000
out_time_ms=696320000
out_time=00:11:36.320000
dup_frames=0
drop_frames=0
speed=1.18x
progress=continue
frame=17602 fps= 30 q=23.0 size=  436736KiB time=00:11:44.12 bitrate=5081.2kbits/s speed=1.18x    
frame=17602
fps=29.57
stream_0_0_q=23.0
bitrate=5081.2kbits/s
total_size=447217712
out_time_us=704120000
out_time_ms=704120000
out_time=00:11:44.120000
dup_frames=0
drop_frames=0
speed=1.18x
progress=continue
frame=17794 fps= 30 q=23.0 size=  439296KiB time=00:11:51.80 bitrate=5055.8kbits/s speed=1.19x    
frame=17794
fps=29.65
stream_0_0_q=23.0
bitrate=5055.8kbits/s
total_size=449839152
out_time_us=711800000
out_time_ms=711800000
out_time=00:11:51.800000
dup_frames=0
drop_frames=0
speed=1.19x
progress=continue
frame=17987 fps= 30 q=23.0 size=  442112KiB time=00:11:59.48 bitrate=5033.9kbits/s speed=1.19x    
frame=17987
fps=29.72
stream_0_0_q=23.0
bitrate=5033.9kbits/s
total_size=452722736
out_time_us=719480000
out_time_ms=719480000
out_time=00:11:59.480000
dup_frames=0
drop_frames=0
speed=1.19x
progress=continue
frame=18165 fps= 30 q=20.0 size=  444928KiB time=00:12:06.56 bitrate=5016.6kbits/s speed=1.19x    
frame=18165
fps=29.77
stream_0_0_q=20.0
bitrate=5016.6kbits/s
total_size=455606320
out_time_us=726560000
out_time_ms=726560000
out_time=00:12:06.560000
dup_frames=0
drop_frames=0
speed=1.19x
progress=continue
frame=18336 fps= 30 q=23.0 size=  447744KiB time=00:12:13.48 bitrate=5000.7kbits/s speed=1.19x    
frame=18336
fps=29.80
stream_0_0_q=23.0
bitrate=5000.7kbits/s
total_size=458489904
out_time_us=733480000
out_time_ms=733480000
out_time=00:12:13.480000
dup_frames=0
drop_frames=0
speed=1.19x
progress=continue
frame=18503 fps= 30 q=23.0 size=  450304KiB time=00:12:20.12 bitrate=4984.2kbits/s speed=1.19x    
frame=18503
fps=29.83
stream_0_0_q=23.0
bitrate=4984.2kbits/s
total_size=461111344
out_time_us=740120000
out_time_ms=740120000
out_time=00:12:20.120000
dup_frames=0
drop_frames=0
speed=1.19x
progress=continue
frame=18661 fps= 30 q=23.0 size=  452864KiB time=00:12:26.44 bitrate=4970.1kbits/s speed=1.19x    
frame=18661
fps=29.84
stream_0_0_q=23.0
bitrate=4970.1kbits/s
total_size=463732784
out_time_us=746440000
out_time_ms=746440000
out_time=00:12:26.440000
dup_frames=0
drop_frames=0
speed=1.19x
progress=continue
frame=18782 fps= 30 q=23.0 size=  456192KiB time=00:12:31.32 bitrate=4974.1kbits/s speed=1.19x    
frame=18782
fps=29.79
stream_0_0_q=23.0
bitrate=4974.1kbits/s
total_size=467140656
out_time_us=751320000
out_time_ms=751320000
out_time=00:12:31.320000
dup_frames=0
drop_frames=0
speed=1.19x
progress=continue
frame=18878 fps= 30 q=23.0 size=  463872KiB time=00:12:35.16 bitrate=5032.1kbits/s speed=1.19x    
frame=18878
fps=29.71
stream_0_0_q=23.0
bitrate=5032.1kbits/s
total_size=475004976
out_time_us=755160000
out_time_ms=755160000
out_time=00:12:35.160000
dup_frames=0
drop_frames=0
speed=1.19x
progress=continue
frame=18981 fps= 30 q=23.0 size=  473344KiB time=00:12:39.28 bitrate=5107.0kbits/s speed=1.19x    
frame=18981
fps=29.63
stream_0_0_q=23.0
bitrate=5107.0kbits/s
total_size=484704304
out_time_us=759280000
out_time_ms=759280000
out_time=00:12:39.280000
dup_frames=0
drop_frames=0
speed=1.19x
progress=continue
frame=19102 fps= 30 q=23.0 size=  480000KiB time=00:12:43.92 bitrate=5147.3kbits/s speed=1.18x    
frame=19102
fps=29.59
stream_0_0_q=23.0
bitrate=5147.3kbits/s
total_size=491520048
out_time_us=763920000
out_time_ms=763920000
out_time=00:12:43.920000
dup_frames=0
drop_frames=0
speed=1.18x
progress=continue
frame=19233 fps= 30 q=23.0 size=  484352KiB time=00:12:49.36 bitrate=5157.3kbits/s speed=1.18x    
frame=19233
fps=29.56
stream_0_0_q=23.0
bitrate=5157.3kbits/s
total_size=495976496
out_time_us=769360000
out_time_ms=769360000
out_time=00:12:49.360000
dup_frames=0
drop_frames=0
speed=1.18x
progress=continue
frame=19374 fps= 30 q=23.0 size=  488192KiB time=00:12:54.92 bitrate=5160.9kbits/s speed=1.18x    
frame=19374
fps=29.55
stream_0_0_q=23.0
bitrate=5160.9kbits/s
total_size=499908656
out_time_us=774920000
out_time_ms=774920000
out_time=00:12:54.920000
dup_frames=0
drop_frames=0
speed=1.18x
progress=continue
frame=19516 fps= 30 q=23.0 size=  492288KiB time=00:13:00.64 bitrate=5166.0kbits/s speed=1.18x    
frame=19516
fps=29.53
stream_0_0_q=23.0
bitrate=5166.0kbits/s
total_size=504102960
out_time_us=780640000
out_time_ms=780640000
out_time=00:13:00.640000
dup_frames=0
drop_frames=0
speed=1.18x
progress=continue
frame=19667 fps= 30 q=23.0 size=  495872KiB time=00:13:06.64 bitrate=5164.0kbits/s speed=1.18x    
frame=19667
fps=29.54
stream_0_0_q=23.0
bitrate=5164.0kbits/s
total_size=507772976
out_time_us=786640000
out_time_ms=786640000
out_time=00:13:06.640000
dup_frames=0
drop_frames=0
speed=1.18x
progress=continue
frame=19811 fps= 30 q=23.0 size=  499712KiB time=00:13:12.40 bitrate=5166.1kbits/s speed=1.18x    
frame=19811
fps=29.53
stream_0_0_q=23.0
bitrate=5166.1kbits/s
total_size=511705136
out_time_us=792400000
out_time_ms=792400000
out_time=00:13:12.400000
dup_frames=0
drop_frames=0
speed=1.18x
progress=continue
frame=19975 fps= 30 q=23.0 size=  505344KiB time=00:13:19.04 bitrate=5180.9kbits/s speed=1.18x    
frame=19975
fps=29.55
stream_0_0_q=23.0
bitrate=5180.9kbits/s
total_size=517472304
out_time_us=799040000
out_time_ms=799040000
out_time=00:13:19.040000
dup_frames=0
drop_frames=0
speed=1.18x
progress=continue
frame=20143 fps= 30 q=23.0 size=  512000KiB time=00:13:25.64 bitrate=5206.2kbits/s speed=1.18x    
frame=20143
fps=29.58
stream_0_0_q=23.0
bitrate=5206.2kbits/s
total_size=524288048
out_time_us=805640000
out_time_ms=805640000
out_time=00:13:25.640000
dup_frames=0
drop_frames=0
speed=1.18x
progress=continue
frame=20260 fps= 30 q=23.0 size=  517632KiB time=00:13:30.36 bitrate=5232.8kbits/s speed=1.18x    
frame=20260
fps=29.53
stream_0_0_q=23.0
bitrate=5232.8kbits/s
total_size=530055216
out_time_us=810360000
out_time_ms=810360000
out_time=00:13:30.360000
dup_frames=0
drop_frames=0
speed=1.18x
progress=continue
frame=20380 fps= 29 q=23.0 size=  523776KiB time=00:13:35.24 bitrate=5263.2kbits/s speed=1.18x    
frame=20380
fps=29.48
stream_0_0_q=23.0
bitrate=5263.2kbits/s
total_size=536346672
out_time_us=815240000
out_time_ms=815240000
out_time=00:13:35.240000
dup_frames=0
drop_frames=0
speed=1.18x
progress=continue
frame=20524 fps= 29 q=23.0 size=  527104KiB time=00:13:40.96 bitrate=5259.7kbits/s speed=1.18x    
frame=20524
fps=29.48
stream_0_0_q=23.0
bitrate=5259.7kbits/s
total_size=539754544
out_time_us=820960000
out_time_ms=820960000
out_time=00:13:40.960000
dup_frames=0
drop_frames=0
speed=1.18x
progress=continue
frame=20672 fps= 29 q=23.0 size=  530432KiB time=00:13:46.92 bitrate=5254.8kbits/s speed=1.18x    
frame=20672
fps=29.48
stream_0_0_q=23.0
bitrate=5254.8kbits/s
total_size=543162416
out_time_us=826920000
out_time_ms=826920000
out_time=00:13:46.920000
dup_frames=0
drop_frames=0
speed=1.18x
progress=continue
frame=20773 fps= 29 q=23.0 size=  538368KiB time=00:13:50.92 bitrate=5307.7kbits/s speed=1.18x    
frame=20773
fps=29.41
stream_0_0_q=23.0
bitrate=5307.7kbits/s
total_size=551288880
out_time_us=830920000
out_time_ms=830920000
out_time=00:13:50.920000
dup_frames=0
drop_frames=0
speed=1.18x
progress=continue
frame=20872 fps= 29 q=23.0 size=  548096KiB time=00:13:54.88 bitrate=5378.0kbits/s speed=1.17x    
frame=20872
fps=29.34
stream_0_0_q=23.0
bitrate=5378.0kbits/s
total_size=561250352
out_time_us=834880000
out_time_ms=834880000
out_time=00:13:54.880000
dup_frames=0
drop_frames=0
speed=1.17x
progress=continue
frame=20972 fps= 29 q=23.0 size=  558336KiB time=00:13:58.88 bitrate=5452.4kbits/s speed=1.17x    
frame=20972
fps=29.27
stream_0_0_q=23.0
bitrate=5452.4kbits/s
total_size=571736112
out_time_us=838880000
out_time_ms=838880000
out_time=00:13:58.880000
dup_frames=0
drop_frames=0
speed=1.17x
progress=continue
frame=21067 fps= 29 q=23.0 size=  572928KiB time=00:14:02.72 bitrate=5569.4kbits/s speed=1.17x    
frame=21067
fps=29.20
stream_0_0_q=23.0
bitrate=5569.4kbits/s
total_size=586678320
out_time_us=842720000
out_time_ms=842720000
out_time=00:14:02.720000
dup_frames=0
drop_frames=0
speed=1.17x
progress=continue
frame=21186 fps= 29 q=23.0 size=  579840KiB time=00:14:07.48 bitrate=5604.9kbits/s speed=1.17x    
frame=21186
fps=29.16
stream_0_0_q=23.0
bitrate=5604.9kbits/s
total_size=593756208
out_time_us=847480000
out_time_ms=847480000
out_time=00:14:07.480000
dup_frames=0
drop_frames=0
speed=1.17x
progress=continue
frame=21296 fps= 29 q=23.0 size=  583936KiB time=00:14:11.76 bitrate=5616.1kbits/s speed=1.16x    
frame=21296
fps=29.11
stream_0_0_q=23.0
bitrate=5616.1kbits/s
total_size=597950512
out_time_us=851760000
out_time_ms=851760000
out_time=00:14:11.760000
dup_frames=0
drop_frames=0
speed=1.16x
progress=continue
frame=21419 fps= 29 q=23.0 size=  588032KiB time=00:14:16.72 bitrate=5622.8kbits/s speed=1.16x    
frame=21419
fps=29.07
stream_0_0_q=23.0
bitrate=5622.8kbits/s
total_size=602144816
out_time_us=856720000
out_time_ms=856720000
out_time=00:14:16.720000
dup_frames=0
drop_frames=0
speed=1.16x
progress=continue
frame=21545 fps= 29 q=23.0 size=  591616KiB time=00:14:21.76 bitrate=5624.0kbits/s speed=1.16x    
frame=21545
fps=29.04
stream_0_0_q=23.0
bitrate=5624.0kbits/s
total_size=605814832
out_time_us=861760000
out_time_ms=861760000
out_time=00:14:21.760000
dup_frames=0
drop_frames=0
speed=1.16x
progress=continue
frame=21659 fps= 29 q=23.0 size=  596480KiB time=00:14:26.36 bitrate=5640.1kbits/s speed=1.16x    
frame=21659
fps=29.00
stream_0_0_q=23.0
bitrate=5640.1kbits/s
total_size=610795568
out_time_us=866360000
out_time_ms=866360000
out_time=00:14:26.360000
dup_frames=0
drop_frames=0
speed=1.16x
progress=continue
frame=21785 fps= 29 q=23.0 size=  600832KiB time=00:14:31.44 bitrate=5648.1kbits/s speed=1.16x    
frame=21785
fps=28.97
stream_0_0_q=23.0
bitrate=5648.1kbits/s
total_size=615252016
out_time_us=871440000
out_time_ms=871440000
out_time=00:14:31.440000
dup_frames=0
drop_frames=0
speed=1.16x
progress=continue
frame=21910 fps= 29 q=23.0 size=  604672KiB time=00:14:36.44 bitrate=5651.8kbits/s speed=1.16x    
frame=21910
fps=28.94
stream_0_0_q=23.0
bitrate=5651.8kbits/s
total_size=619184176
out_time_us=876440000
out_time_ms=876440000
out_time=00:14:36.440000
dup_frames=0
drop_frames=0
speed=1.16x
progress=continue
frame=22030 fps= 29 q=23.0 size=  608000KiB time=00:14:41.24 bitrate=5652.0kbits/s speed=1.16x    
frame=22030
fps=28.91
stream_0_0_q=23.0
bitrate=5652.0kbits/s
total_size=622592048
out_time_us=881240000
out_time_ms=881240000
out_time=00:14:41.240000
dup_frames=0
drop_frames=0
speed=1.16x
progress=continue
frame=22172 fps= 29 q=23.0 size=  611840KiB time=00:14:46.88 bitrate=5651.5kbits/s speed=1.16x    
frame=22172
fps=28.90
stream_0_0_q=23.0
bitrate=5651.5kbits/s
total_size=626524208
out_time_us=886880000
out_time_ms=886880000
out_time=00:14:46.880000
dup_frames=0
drop_frames=0
speed=1.16x
progress=continue
frame=22327 fps= 29 q=23.0 size=  615168KiB time=00:14:52.96 bitrate=5643.5kbits/s speed=1.16x    
frame=22327
fps=28.92
stream_0_0_q=23.0
bitrate=5643.5kbits/s
total_size=629932080
out_time_us=892960000
out_time_ms=892960000
out_time=00:14:52.960000
dup_frames=0
drop_frames=0
speed=1.16x
progress=continue
frame=22464 fps= 29 q=23.0 size=  618496KiB time=00:14:58.60 bitrate=5638.5kbits/s speed=1.16x    
frame=22464
fps=28.90
stream_0_0_q=23.0
bitrate=5638.5kbits/s
total_size=633339952
out_time_us=898600000
out_time_ms=898600000
out_time=00:14:58.600000
dup_frames=0
drop_frames=0
speed=1.16x
progress=continue
frame=22598 fps= 29 q=23.0 size=  622080KiB time=00:15:03.96 bitrate=5637.5kbits/s speed=1.16x    
frame=22598
fps=28.89
stream_0_0_q=23.0
bitrate=5637.5kbits/s
total_size=637009968
out_time_us=903960000
out_time_ms=903960000
out_time=00:15:03.960000
dup_frames=0
drop_frames=0
speed=1.16x
progress=continue
frame=22747 fps= 29 q=23.0 size=  625920KiB time=00:15:09.88 bitrate=5635.4kbits/s speed=1.16x    
frame=22747
fps=28.89
stream_0_0_q=23.0
bitrate=5635.4kbits/s
total_size=640942128
out_time_us=909880000
out_time_ms=909880000
out_time=00:15:09.880000
dup_frames=0
drop_frames=0
speed=1.16x
progress=continue
frame=22913 fps= 29 q=23.0 size=  629504KiB time=00:15:16.56 bitrate=5626.4kbits/s speed=1.16x    
frame=22913
fps=28.92
stream_0_0_q=23.0
bitrate=5626.4kbits/s
total_size=644612144
out_time_us=916560000
out_time_ms=916560000
out_time=00:15:16.560000
dup_frames=0
drop_frames=0
speed=1.16x
progress=continue
frame=23056 fps= 29 q=23.0 size=  633088KiB time=00:15:22.28 bitrate=5623.3kbits/s speed=1.16x    
frame=23056
fps=28.92
stream_0_0_q=23.0
bitrate=5623.3kbits/s
total_size=648282160
out_time_us=922280000
out_time_ms=922280000
out_time=00:15:22.280000
dup_frames=0
drop_frames=0
speed=1.16x
progress=continue
frame=23199 fps= 29 q=23.0 size=  636416KiB time=00:15:27.88 bitrate=5618.7kbits/s speed=1.16x    
frame=23199
fps=28.91
stream_0_0_q=23.0
bitrate=5618.7kbits/s
total_size=651690032
out_time_us=927880000
out_time_ms=927880000
out_time=00:15:27.880000
dup_frames=0
drop_frames=0
speed=1.16x
progress=continue
frame=23354 fps= 29 q=23.0 size=  639232KiB time=00:15:34.20 bitrate=5605.4kbits/s speed=1.16x    
frame=23354
fps=28.92
stream_0_0_q=23.0
bitrate=5605.4kbits/s
total_size=654573616
out_time_us=934200000
out_time_ms=934200000
out_time=00:15:34.200000
dup_frames=0
drop_frames=0
speed=1.16x
progress=continue
frame=23505 fps= 29 q=23.0 size=  642560KiB time=00:15:40.16 bitrate=5598.9kbits/s speed=1.16x    
frame=23505
fps=28.93
stream_0_0_q=23.0
bitrate=5598.9kbits/s
total_size=657981488
out_time_us=940160000
out_time_ms=940160000
out_time=00:15:40.160000
dup_frames=0
drop_frames=0
speed=1.16x
progress=continue
frame=23647 fps= 29 q=23.0 size=  645888KiB time=00:15:45.88 bitrate=5593.9kbits/s speed=1.16x    
frame=23647
fps=28.93
stream_0_0_q=23.0
bitrate=5593.9kbits/s
total_size=661389360
out_time_us=945880000
out_time_ms=945880000
out_time=00:15:45.880000
dup_frames=0
drop_frames=0
speed=1.16x
progress=continue
frame=23805 fps= 29 q=23.0 size=  649472KiB time=00:15:52.20 bitrate=5587.6kbits/s speed=1.16x    
frame=23805
fps=28.94
stream_0_0_q=23.0
bitrate=5587.6kbits/s
total_size=665059376
out_time_us=952200000
out_time_ms=952200000
out_time=00:15:52.200000
dup_frames=0
drop_frames=0
speed=1.16x
progress=continue
frame=23959 fps= 29 q=23.0 size=  653056KiB time=00:15:58.36 bitrate=5582.3kbits/s speed=1.16x    
frame=23959
fps=28.95
stream_0_0_q=23.0
bitrate=5582.3kbits/s
total_size=668729392
out_time_us=958360000
out_time_ms=958360000
out_time=00:15:58.360000
dup_frames=0
drop_frames=0
speed=1.16x
progress=continue
frame=24105 fps= 29 q=23.0 size=  656128KiB time=00:16:04.24 bitrate=5574.3kbits/s speed=1.16x    
frame=24105
fps=28.95
stream_0_0_q=23.0
bitrate=5574.3kbits/s
total_size=671875120
out_time_us=964240000
out_time_ms=964240000
out_time=00:16:04.240000
dup_frames=0
drop_frames=0
speed=1.16x
progress=continue
frame=24245 fps= 29 q=23.0 size=  659200KiB time=00:16:09.72 bitrate=5568.8kbits/s speed=1.16x    
frame=24245
fps=28.94
stream_0_0_q=23.0
bitrate=5568.8kbits/s
total_size=675020848
out_time_us=969720000
out_time_ms=969720000
out_time=00:16:09.720000
dup_frames=0
drop_frames=0
speed=1.16x
progress=continue
frame=24403 fps= 29 q=23.0 size=  662528KiB time=00:16:16.16 bitrate=5560.0kbits/s speed=1.16x    
frame=24403
fps=28.96
stream_0_0_q=23.0
bitrate=5560.0kbits/s
total_size=678428720
out_time_us=976160000
out_time_ms=976160000
out_time=00:16:16.160000
dup_frames=0
drop_frames=0
speed=1.16x
progress=continue
frame=24545 fps= 29 q=23.0 size=  665344KiB time=00:16:21.84 bitrate=5551.3kbits/s speed=1.16x    
frame=24545
fps=28.95
stream_0_0_q=23.0
bitrate=5551.3kbits/s
total_size=681312304
out_time_us=981840000
out_time_ms=981840000
out_time=00:16:21.840000
dup_frames=0
drop_frames=0
speed=1.16x
progress=continue
frame=24688 fps= 29 q=23.0 size=  668928KiB time=00:16:27.52 bitrate=5549.1kbits/s speed=1.16x    
frame=24688
fps=28.95
stream_0_0_q=23.0
bitrate=5549.1kbits/s
total_size=684982320
out_time_us=987520000
out_time_ms=987520000
out_time=00:16:27.520000
dup_frames=0
drop_frames=0
speed=1.16x
progress=continue
frame=24865 fps= 29 q=20.0 size=  672768KiB time=00:16:34.64 bitrate=5541.0kbits/s speed=1.16x    
frame=24865
fps=28.98
stream_0_0_q=20.0
bitrate=5541.0kbits/s
total_size=688914480
out_time_us=994640000
out_time_ms=994640000
out_time=00:16:34.640000
dup_frames=0
drop_frames=0
speed=1.16x
progress=continue
frame=25025 fps= 29 q=23.0 size=  675840KiB time=00:16:41.00 bitrate=5531.0kbits/s speed=1.16x    
frame=25025
fps=29.00
stream_0_0_q=23.0
bitrate=5531.0kbits/s
total_size=692060208
out_time_us=1001000000
out_time_ms=1001000000
out_time=00:16:41.000000
dup_frames=0
drop_frames=0
speed=1.16x
progress=continue
frame=25179 fps= 29 q=23.0 size=  679424KiB time=00:16:47.20 bitrate=5526.1kbits/s speed=1.16x    
frame=25179
fps=29.01
stream_0_0_q=23.0
bitrate=5526.1kbits/s
total_size=695730224
out_time_us=1007200000
out_time_ms=1007200000
out_time=00:16:47.200000
dup_frames=0
drop_frames=0
speed=1.16x
progress=continue
frame=25311 fps= 29 q=23.0 size=  683008KiB time=00:16:52.40 bitrate=5526.7kbits/s speed=1.16x    
frame=25311
fps=28.99
stream_0_0_q=23.0
bitrate=5526.7kbits/s
total_size=699400240
out_time_us=1012400000
out_time_ms=1012400000
out_time=00:16:52.400000
dup_frames=0
drop_frames=0
speed=1.16x
progress=continue
frame=25466 fps= 29 q=23.0 size=  686592KiB time=00:16:58.64 bitrate=5521.6kbits/s speed=1.16x    
frame=25466
fps=29.00
stream_0_0_q=23.0
bitrate=5521.6kbits/s
total_size=703070256
out_time_us=1018640000
out_time_ms=1018640000
out_time=00:16:58.640000
dup_frames=0
drop_frames=0
speed=1.16x
progress=continue
frame=25609 fps= 29 q=23.0 size=  689664KiB time=00:17:04.40 bitrate=5515.2kbits/s speed=1.16x    
frame=25609
fps=29.00
stream_0_0_q=23.0
bitrate=5515.2kbits/s
total_size=706215984
out_time_us=1024400000
out_time_ms=1024400000
out_time=00:17:04.400000
dup_frames=0
drop_frames=0
speed=1.16x
progress=continue
frame=25747 fps= 29 q=23.0 size=  693248KiB time=00:17:09.88 bitrate=5514.3kbits/s speed=1.16x    
frame=25747
fps=28.99
stream_0_0_q=23.0
bitrate=5514.3kbits/s
total_size=709886000
out_time_us=1029880000
out_time_ms=1029880000
out_time=00:17:09.880000
dup_frames=0
drop_frames=0
speed=1.16x
progress=continue
frame=25892 fps= 29 q=23.0 size=  696576KiB time=00:17:15.68 bitrate=5509.8kbits/s speed=1.16x    
frame=25892
fps=28.99
stream_0_0_q=23.0
bitrate=5509.8kbits/s
total_size=713293872
out_time_us=1035680000
out_time_ms=1035680000
out_time=00:17:15.680000
dup_frames=0
drop_frames=0
speed=1.16x
progress=continue
frame=26049 fps= 29 q=23.0 size=  700160KiB time=00:17:22.00 bitrate=5504.5kbits/s speed=1.16x    
frame=26049
fps=29.00
stream_0_0_q=23.0
bitrate=5504.5kbits/s
total_size=716963888
out_time_us=1042000000
out_time_ms=1042000000
out_time=00:17:22.000000
dup_frames=0
drop_frames=0
speed=1.16x
progress=continue
frame=26195 fps= 29 q=23.0 size=  704000KiB time=00:17:27.80 bitrate=5504.1kbits/s speed=1.16x    
frame=26195
fps=29.00
stream_0_0_q=23.0
bitrate=5504.1kbits/s
total_size=720896048
out_time_us=1047800000
out_time_ms=1047800000
out_time=00:17:27.800000
dup_frames=0
drop_frames=0
speed=1.16x
progress=continue
frame=26339 fps= 29 q=23.0 size=  707584KiB time=00:17:33.60 bitrate=5501.6kbits/s speed=1.16x    
frame=26339
fps=28.99
stream_0_0_q=23.0
bitrate=5501.6kbits/s
total_size=724566064
out_time_us=1053600000
out_time_ms=1053600000
out_time=00:17:33.600000
dup_frames=0
drop_frames=0
speed=1.16x
progress=continue
frame=26483 fps= 29 q=23.0 size=  710912KiB time=00:17:39.32 bitrate=5497.7kbits/s speed=1.16x    
frame=26483
fps=28.99
stream_0_0_q=23.0
bitrate=5497.7kbits/s
total_size=727973936
out_time_us=1059320000
out_time_ms=1059320000
out_time=00:17:39.320000
dup_frames=0
drop_frames=0
speed=1.16x
progress=continue
frame=26604 fps= 29 q=23.0 size=  715008KiB time=00:17:44.20 bitrate=5504.0kbits/s speed=1.16x    
frame=26604
fps=28.96
stream_0_0_q=23.0
bitrate=5504.0kbits/s
total_size=732168240
out_time_us=1064200000
out_time_ms=1064200000
out_time=00:17:44.200000
dup_frames=0
drop_frames=0
speed=1.16x
progress=continue
frame=26704 fps= 29 q=23.0 size=  720128KiB time=00:17:48.20 bitrate=5522.6kbits/s speed=1.16x    
frame=26704
fps=28.91
stream_0_0_q=23.0
bitrate=5522.6kbits/s
total_size=737411120
out_time_us=1068200000
out_time_ms=1068200000
out_time=00:17:48.200000
dup_frames=0
drop_frames=0
speed=1.16x
progress=continue
frame=26808 fps= 29 q=23.0 size=  726016KiB time=00:17:52.36 bitrate=5546.2kbits/s speed=1.15x    
frame=26808
fps=28.87
stream_0_0_q=23.0
bitrate=5546.2kbits/s
total_size=743440432
out_time_us=1072360000
out_time_ms=1072360000
out_time=00:17:52.360000
dup_frames=0
drop_frames=0
speed=1.15x
progress=continue
frame=26935 fps= 29 q=23.0 size=  730624KiB time=00:17:57.40 bitrate=5555.3kbits/s speed=1.15x    
frame=26935
fps=28.85
stream_0_0_q=23.0
bitrate=5555.3kbits/s
total_size=748159024
out_time_us=1077400000
out_time_ms=1077400000
out_time=00:17:57.400000
dup_frames=0
drop_frames=0
speed=1.15x
progress=continue
frame=27089 fps= 29 q=23.0 size=  734720KiB time=00:18:03.60 bitrate=5554.5kbits/s speed=1.15x    
frame=27089
fps=28.86
stream_0_0_q=23.0
bitrate=5554.5kbits/s
total_size=752353328
out_time_us=1083600000
out_time_ms=1083600000
out_time=00:18:03.600000
dup_frames=0
drop_frames=0
speed=1.15x
progress=continue
frame=27215 fps= 29 q=20.0 size=  739840KiB time=00:18:08.64 bitrate=5567.3kbits/s speed=1.15x    
frame=27215
fps=28.84
stream_0_0_q=20.0
bitrate=5567.3kbits/s
total_size=757596208
out_time_us=1088640000
out_time_ms=1088640000
out_time=00:18:08.640000
dup_frames=0
drop_frames=0
speed=1.15x
progress=continue
frame=27351 fps= 29 q=23.0 size=  743936KiB time=00:18:14.08 bitrate=5570.3kbits/s speed=1.15x    
frame=27351
fps=28.83
stream_0_0_q=23.0
bitrate=5570.3kbits/s
total_size=761790512
out_time_us=1094080000
out_time_ms=1094080000
out_time=00:18:14.080000
dup_frames=0
drop_frames=0
speed=1.15x
progress=continue
frame=27495 fps= 29 q=23.0 size=  747008KiB time=00:18:19.84 bitrate=5564.0kbits/s speed=1.15x    
frame=27495
fps=28.83
stream_0_0_q=23.0
bitrate=5564.0kbits/s
total_size=764936240
out_time_us=1099840000
out_time_ms=1099840000
out_time=00:18:19.840000
dup_frames=0
drop_frames=0
speed=1.15x
progress=continue
frame=27634 fps= 29 q=23.0 size=  750848KiB time=00:18:25.36 bitrate=5564.7kbits/s speed=1.15x    
frame=27634
fps=28.82
stream_0_0_q=23.0
bitrate=5564.7kbits/s
total_size=768868400
out_time_us=1105360000
out_time_ms=1105360000
out_time=00:18:25.360000
dup_frames=0
drop_frames=0
speed=1.15x
progress=continue
frame=27769 fps= 29 q=23.0 size=  754688KiB time=00:18:30.76 bitrate=5565.9kbits/s speed=1.15x    
frame=27769
fps=28.81
stream_0_0_q=23.0
bitrate=5565.9kbits/s
total_size=772800560
out_time_us=1110760000
out_time_ms=1110760000
out_time=00:18:30.760000
dup_frames=0
drop_frames=0
speed=1.15x
progress=continue
frame=27906 fps= 29 q=23.0 size=  758528KiB time=00:18:36.12 bitrate=5567.4kbits/s speed=1.15x    
frame=27906
fps=28.80
stream_0_0_q=23.0
bitrate=5567.4kbits/s
total_size=776732720
out_time_us=1116120000
out_time_ms=1116120000
out_time=00:18:36.120000
dup_frames=0
drop_frames=0
speed=1.15x
progress=continue
frame=28056 fps= 29 q=23.0 size=  762368KiB time=00:18:42.24 bitrate=5565.0kbits/s speed=1.15x    
frame=28056
fps=28.81
stream_0_0_q=23.0
bitrate=5565.0kbits/s
total_size=780664880
out_time_us=1122240000
out_time_ms=1122240000
out_time=00:18:42.240000
dup_frames=0
drop_frames=0
speed=1.15x
progress=continue
frame=28182 fps= 29 q=23.0 size=  766720KiB time=00:18:47.28 bitrate=5571.8kbits/s speed=1.15x    
frame=28182
fps=28.79
stream_0_0_q=23.0
bitrate=5571.8kbits/s
total_size=785121328
out_time_us=1127280000
out_time_ms=1127280000
out_time=00:18:47.280000
dup_frames=0
drop_frames=0
speed=1.15x
progress=continue
frame=28313 fps= 29 q=23.0 size=  771072KiB time=00:18:52.56 bitrate=5577.3kbits/s speed=1.15x    
frame=28313
fps=28.77
stream_0_0_q=23.0
bitrate=5577.3kbits/s
total_size=789577776
out_time_us=1132560000
out_time_ms=1132560000
out_time=00:18:52.560000
dup_frames=0
drop_frames=0
speed=1.15x
progress=continue
frame=28444 fps= 29 q=23.0 size=  774144KiB time=00:18:57.80 bitrate=5573.7kbits/s speed=1.15x    
frame=28444
fps=28.76
stream_0_0_q=23.0
bitrate=5573.7kbits/s
total_size=792723504
out_time_us=1137800000
out_time_ms=1137800000
out_time=00:18:57.800000
dup_frames=0
drop_frames=0
speed=1.15x
progress=continue
frame=28585 fps= 29 q=23.0 size=  778496KiB time=00:19:03.44 bitrate=5577.4kbits/s speed=1.15x    
frame=28585
fps=28.75
stream_0_0_q=23.0
bitrate=5577.4kbits/s
total_size=797179952
out_time_us=1143440000
out_time_ms=1143440000
out_time=00:19:03.440000
dup_frames=0
drop_frames=0
speed=1.15x
progress=continue
frame=28718 fps= 29 q=23.0 size=  782592KiB time=00:19:08.76 bitrate=5580.8kbits/s speed=1.15x    
frame=28718
fps=28.74
stream_0_0_q=23.0
bitrate=5580.8kbits/s
total_size=801374256
out_time_us=1148760000
out_time_ms=1148760000
out_time=00:19:08.760000
dup_frames=0
drop_frames=0
speed=1.15x
progress=continue
frame=28846 fps= 29 q=23.0 size=  786432KiB time=00:19:13.88 bitrate=5583.3kbits/s speed=1.15x    
frame=28846
fps=28.73
stream_0_0_q=23.0
bitrate=5583.3kbits/s
total_size=805306416
out_time_us=1153880000
out_time_ms=1153880000
out_time=00:19:13.880000
dup_frames=0
drop_frames=0
speed=1.15x
progress=continue
frame=28988 fps= 29 q=23.0 size=  789760KiB time=00:19:19.56 bitrate=5579.5kbits/s speed=1.15x    
frame=28988
fps=28.72
stream_0_0_q=23.0
bitrate=5579.5kbits/s
total_size=808714288
out_time_us=1159560000
out_time_ms=1159560000
out_time=00:19:19.560000
dup_frames=0
drop_frames=0
speed=1.15x
progress=continue
frame=29121 fps= 29 q=23.0 size=  793600KiB time=00:19:24.88 bitrate=5581.0kbits/s speed=1.15x    
frame=29121
fps=28.71
stream_0_0_q=23.0
bitrate=5581.0kbits/s
total_size=812646448
out_time_us=1164880000
out_time_ms=1164880000
out_time=00:19:24.880000
dup_frames=0
drop_frames=0
speed=1.15x
progress=continue
frame=29255 fps= 29 q=23.0 size=  797440KiB time=00:19:30.24 bitrate=5582.3kbits/s speed=1.15x    
frame=29255
fps=28.70
stream_0_0_q=23.0
bitrate=5582.3kbits/s
total_size=816578608
out_time_us=1170240000
out_time_ms=1170240000
out_time=00:19:30.240000
dup_frames=0
drop_frames=0
speed=1.15x
progress=continue
frame=29388 fps= 29 q=23.0 size=  800768KiB time=00:19:35.48 bitrate=5580.6kbits/s speed=1.15x    
frame=29388
fps=28.69
stream_0_0_q=23.0
bitrate=5580.6kbits/s
total_size=819986480
out_time_us=1175480000
out_time_ms=1175480000
out_time=00:19:35.480000
dup_frames=0
drop_frames=0
speed=1.15x
progress=continue
frame=29535 fps= 29 q=23.0 size=  804352KiB time=00:19:41.44 bitrate=5577.3kbits/s speed=1.15x    
frame=29535
fps=28.69
stream_0_0_q=23.0
bitrate=5577.3kbits/s
total_size=823656496
out_time_us=1181440000
out_time_ms=1181440000
out_time=00:19:41.440000
dup_frames=0
drop_frames=0
speed=1.15x
progress=continue
frame=29662 fps= 29 q=23.0 size=  807936KiB time=00:19:46.52 bitrate=5578.2kbits/s speed=1.15x    
frame=29662
fps=28.68
stream_0_0_q=23.0
bitrate=5578.2kbits/s
total_size=827326512
out_time_us=1186520000
out_time_ms=1186520000
out_time=00:19:46.520000
dup_frames=0
drop_frames=0
speed=1.15x
progress=continue
frame=29816 fps= 29 q=23.0 size=  811776KiB time=00:19:52.68 bitrate=5575.7kbits/s speed=1.15x    
frame=29816
fps=28.69
stream_0_0_q=23.0
bitrate=5575.7kbits/s
total_size=831258672
out_time_us=1192680000
out_time_ms=1192680000
out_time=00:19:52.680000
dup_frames=0
drop_frames=0
speed=1.15x
progress=continue
frame=29955 fps= 29 q=23.0 size=  816384KiB time=00:19:58.24 bitrate=5581.4kbits/s speed=1.15x    
frame=29955
fps=28.68
stream_0_0_q=23.0
bitrate=5581.4kbits/s
total_size=835977264
out_time_us=1198240000
out_time_ms=1198240000
out_time=00:19:58.240000
dup_frames=0
drop_frames=0
speed=1.15x
progress=continue
frame=30105 fps= 29 q=23.0 size=  820224KiB time=00:20:04.24 bitrate=5579.7kbits/s speed=1.15x    
frame=30105
fps=28.69
stream_0_0_q=23.0
bitrate=5579.7kbits/s
total_size=839909424
out_time_us=1204240000
out_time_ms=1204240000
out_time=00:20:04.240000
dup_frames=0
drop_frames=0
speed=1.15x
progress=continue
frame=30256 fps= 29 q=23.0 size=  823808KiB time=00:20:10.28 bitrate=5576.1kbits/s speed=1.15x    
frame=30256
fps=28.69
stream_0_0_q=23.0
bitrate=5576.1kbits/s
total_size=843579440
out_time_us=1210280000
out_time_ms=1210280000
out_time=00:20:10.280000
dup_frames=0
drop_frames=0
speed=1.15x
progress=continue
frame=30386 fps= 29 q=23.0 size=  826880KiB time=00:20:15.48 bitrate=5572.9kbits/s speed=1.15x    
frame=30386
fps=28.68
stream_0_0_q=23.0
bitrate=5572.9kbits/s
total_size=846725168
out_time_us=1215480000
out_time_ms=1215480000
out_time=00:20:15.480000
dup_frames=0
drop_frames=0
speed=1.15x
progress=continue
frame=30521 fps= 29 q=23.0 size=  830464KiB time=00:20:20.84 bitrate=5572.5kbits/s speed=1.15x    
frame=30521
fps=28.67
stream_0_0_q=23.0
bitrate=5572.5kbits/s
total_size=850395184
out_time_us=1220840000
out_time_ms=1220840000
out_time=00:20:20.840000
dup_frames=0
drop_frames=0
speed=1.15x
progress=continue
frame=30659 fps= 29 q=23.0 size=  834048KiB time=00:20:26.32 bitrate=5571.6kbits/s speed=1.15x    
frame=30659
fps=28.67
stream_0_0_q=23.0
bitrate=5571.6kbits/s
total_size=854065200
out_time_us=1226320000
out_time_ms=1226320000
out_time=00:20:26.320000
dup_frames=0
drop_frames=0
speed=1.15x
progress=continue
frame=30788 fps= 29 q=23.0 size=  837888KiB time=00:20:31.56 bitrate=5573.4kbits/s speed=1.15x    
frame=30788
fps=28.65
stream_0_0_q=23.0
bitrate=5573.4kbits/s
total_size=857997360
out_time_us=1231560000
out_time_ms=1231560000
out_time=00:20:31.560000
dup_frames=0
drop_frames=0
speed=1.15x
progress=continue
frame=30922 fps= 29 q=23.0 size=  841728KiB time=00:20:36.92 bitrate=5574.7kbits/s speed=1.15x    
frame=30922
fps=28.64
stream_0_0_q=23.0
bitrate=5574.7kbits/s
total_size=861929520
out_time_us=1236920000
out_time_ms=1236920000
out_time=00:20:36.920000
dup_frames=0
drop_frames=0
speed=1.15x
progress=continue
frame=31084 fps= 29 q=23.0 size=  845312KiB time=00:20:43.40 bitrate=5569.2kbits/s speed=1.15x    
frame=31084
fps=28.66
stream_0_0_q=23.0
bitrate=5569.2kbits/s
total_size=865599536
out_time_us=1243400000
out_time_ms=1243400000
out_time=00:20:43.400000
dup_frames=0
drop_frames=0
speed=1.15x
progress=continue
frame=31241 fps= 29 q=23.0 size=  848896KiB time=00:20:49.64 bitrate=5564.9kbits/s speed=1.15x    
frame=31241
fps=28.67
stream_0_0_q=23.0
bitrate=5564.9kbits/s
total_size=869269552
out_time_us=1249640000
out_time_ms=1249640000
out_time=00:20:49.640000
dup_frames=0
drop_frames=0
speed=1.15x
progress=continue
frame=31407 fps= 29 q=23.0 size=  852992KiB time=00:20:56.32 bitrate=5562.0kbits/s speed=1.15x    
frame=31407
fps=28.69
stream_0_0_q=23.0
bitrate=5562.0kbits/s
total_size=873463856
out_time_us=1256320000
out_time_ms=1256320000
out_time=00:20:56.320000
dup_frames=0
drop_frames=0
speed=1.15x
progress=continue
frame=31540 fps= 29 q=20.0 size=  856576KiB time=00:21:01.64 bitrate=5561.9kbits/s speed=1.15x    
frame=31540
fps=28.68
stream_0_0_q=20.0
bitrate=5561.9kbits/s
total_size=877133872
out_time_us=1261640000
out_time_ms=1261640000
out_time=00:21:01.640000
dup_frames=0
drop_frames=0
speed=1.15x
progress=continue
frame=31687 fps= 29 q=23.0 size=  860160KiB time=00:21:07.52 bitrate=5559.2kbits/s speed=1.15x    
frame=31687
fps=28.68
stream_0_0_q=23.0
bitrate=5559.2kbits/s
total_size=880803888
out_time_us=1267520000
out_time_ms=1267520000
out_time=00:21:07.520000
dup_frames=0
drop_frames=0
speed=1.15x
progress=continue
frame=31828 fps= 29 q=23.0 size=  864256KiB time=00:21:13.16 bitrate=5561.0kbits/s speed=1.15x    
frame=31828
fps=28.68
stream_0_0_q=23.0
bitrate=5561.0kbits/s
total_size=884998192
out_time_us=1273160000
out_time_ms=1273160000
out_time=00:21:13.160000
dup_frames=0
drop_frames=0
speed=1.15x
progress=continue
frame=31990 fps= 29 q=20.0 size=  867584KiB time=00:21:19.64 bitrate=5554.1kbits/s speed=1.15x    
frame=31990
fps=28.70
stream_0_0_q=20.0
bitrate=5554.1kbits/s
total_size=888406064
out_time_us=1279640000
out_time_ms=1279640000
out_time=00:21:19.640000
dup_frames=0
drop_frames=0
speed=1.15x
progress=continue
frame=32121 fps= 29 q=23.0 size=  871168KiB time=00:21:24.84 bitrate=5554.5kbits/s speed=1.15x    
frame=32121
fps=28.68
stream_0_0_q=23.0
bitrate=5554.5kbits/s
total_size=892076080
out_time_us=1284840000
out_time_ms=1284840000
out_time=00:21:24.840000
dup_frames=0
drop_frames=0
speed=1.15x
progress=continue
frame=32260 fps= 29 q=23.0 size=  875008KiB time=00:21:30.44 bitrate=5554.7kbits/s speed=1.15x    
frame=32260
fps=28.68
stream_0_0_q=23.0
bitrate=5554.7kbits/s
total_size=896008240
out_time_us=1290440000
out_time_ms=1290440000
out_time=00:21:30.440000
dup_frames=0
drop_frames=0
speed=1.15x
progress=continue
frame=32391 fps= 29 q=23.0 size=  878592KiB time=00:21:35.68 bitrate=5554.9kbits/s speed=1.15x    
frame=32391
fps=28.67
stream_0_0_q=23.0
bitrate=5554.9kbits/s
total_size=899678256
out_time_us=1295680000
out_time_ms=1295680000
out_time=00:21:35.680000
dup_frames=0
drop_frames=0
speed=1.15x
progress=continue
frame=32535 fps= 29 q=23.0 size=  882944KiB time=00:21:41.44 bitrate=5557.7kbits/s speed=1.15x    
frame=32535
fps=28.67
stream_0_0_q=23.0
bitrate=5557.7kbits/s
total_size=904134704
out_time_us=1301440000
out_time_ms=1301440000
out_time=00:21:41.440000
dup_frames=0
drop_frames=0
speed=1.15x
progress=continue
frame=32672 fps= 29 q=23.0 size=  887040KiB time=00:21:46.84 bitrate=5560.5kbits/s speed=1.15x    
frame=32672
fps=28.66
stream_0_0_q=23.0
bitrate=5560.5kbits/s
total_size=908329008
out_time_us=1306840000
out_time_ms=1306840000
out_time=00:21:46.840000
dup_frames=0
drop_frames=0
speed=1.15x
progress=continue
frame=32811 fps= 29 q=23.0 size=  890624KiB time=00:21:52.48 bitrate=5558.9kbits/s speed=1.15x    
frame=32811
fps=28.65
stream_0_0_q=23.0
bitrate=5558.9kbits/s
total_size=911999024
out_time_us=1312480000
out_time_ms=1312480000
out_time=00:21:52.480000
dup_frames=0
drop_frames=0
speed=1.15x
progress=continue
frame=32922 fps= 29 q=23.0 size=  895744KiB time=00:21:56.84 bitrate=5572.4kbits/s speed=1.14x    
frame=32922
fps=28.63
stream_0_0_q=23.0
bitrate=5572.4kbits/s
total_size=917241904
out_time_us=1316840000
out_time_ms=1316840000
out_time=00:21:56.840000
dup_frames=0
drop_frames=0
speed=1.14x
progress=continue
frame=33039 fps= 29 q=23.0 size=  900608KiB time=00:22:01.56 bitrate=5582.6kbits/s speed=1.14x    
frame=33039
fps=28.60
stream_0_0_q=23.0
bitrate=5582.6kbits/s
total_size=922222640
out_time_us=1321560000
out_time_ms=1321560000
out_time=00:22:01.560000
dup_frames=0
drop_frames=0
speed=1.14x
progress=continue
frame=33156 fps= 29 q=23.0 size=  905984KiB time=00:22:06.28 bitrate=5596.0kbits/s speed=1.14x    
frame=33156
fps=28.58
stream_0_0_q=23.0
bitrate=5596.0kbits/s
total_size=927727664
out_time_us=1326280000
out_time_ms=1326280000
out_time=00:22:06.280000
dup_frames=0
drop_frames=0
speed=1.14x
progress=continue
frame=33265 fps= 29 q=20.0 size=  909824KiB time=00:22:10.64 bitrate=5601.3kbits/s speed=1.14x    
frame=33265
fps=28.55
stream_0_0_q=20.0
bitrate=5601.3kbits/s
total_size=931659824
out_time_us=1330640000
out_time_ms=1330640000
out_time=00:22:10.640000
dup_frames=0
drop_frames=0
speed=1.14x
progress=continue
frame=33384 fps= 29 q=23.0 size=  914688KiB time=00:22:15.40 bitrate=5611.1kbits/s speed=1.14x    
frame=33384
fps=28.53
stream_0_0_q=23.0
bitrate=5611.1kbits/s
total_size=936640560
out_time_us=1335400000
out_time_ms=1335400000
out_time=00:22:15.400000
dup_frames=0
drop_frames=0
speed=1.14x
progress=continue
frame=33478 fps= 28 q=23.0 size=  920832KiB time=00:22:19.16 bitrate=5633.0kbits/s speed=1.14x    
frame=33478
fps=28.48
stream_0_0_q=23.0
bitrate=5633.0kbits/s
total_size=942932016
out_time_us=1339160000
out_time_ms=1339160000
out_time=00:22:19.160000
dup_frames=0
drop_frames=0
speed=1.14x
progress=continue
frame=33586 fps= 28 q=23.0 size=  929024KiB time=00:22:23.48 bitrate=5664.8kbits/s speed=1.14x    
frame=33586
fps=28.45
stream_0_0_q=23.0
bitrate=5664.8kbits/s
total_size=951320624
out_time_us=1343480000
out_time_ms=1343480000
out_time=00:22:23.480000
dup_frames=0
drop_frames=0
speed=1.14x
progress=continue
frame=33698 fps= 28 q=23.0 size=  939776KiB time=00:22:27.92 bitrate=5711.5kbits/s speed=1.14x    
frame=33698
fps=28.43
stream_0_0_q=23.0
bitrate=5711.5kbits/s
total_size=962330672
out_time_us=1347920000
out_time_ms=1347920000
out_time=00:22:27.920000
dup_frames=0
drop_frames=0
speed=1.14x
progress=continue
frame=33813 fps= 28 q=23.0 size=  949504KiB time=00:22:32.56 bitrate=5750.8kbits/s speed=1.14x    
frame=33813
fps=28.40
stream_0_0_q=23.0
bitrate=5750.8kbits/s
total_size=972292144
out_time_us=1352560000
out_time_ms=1352560000
out_time=00:22:32.560000
dup_frames=0
drop_frames=0
speed=1.14x
progress=continue
frame=33949 fps= 28 q=23.0 size=  954624KiB time=00:22:37.88 bitrate=5759.2kbits/s speed=1.14x    
frame=33949
fps=28.40
stream_0_0_q=23.0
bitrate=5759.2kbits/s
total_size=977535024
out_time_us=1357880000
out_time_ms=1357880000
out_time=00:22:37.880000
dup_frames=0
drop_frames=0
speed=1.14x
progress=continue
frame=34073 fps= 28 q=23.0 size=  959232KiB time=00:22:42.92 bitrate=5765.6kbits/s speed=1.14x    
frame=34073
fps=28.38
stream_0_0_q=23.0
bitrate=5765.6kbits/s
total_size=982253616
out_time_us=1362920000
out_time_ms=1362920000
out_time=00:22:42.920000
dup_frames=0
drop_frames=0
speed=1.14x
progress=continue
frame=34205 fps= 28 q=23.0 size=  963840KiB time=00:22:48.24 bitrate=5770.8kbits/s speed=1.13x    
frame=34205
fps=28.37
stream_0_0_q=23.0
bitrate=5770.8kbits/s
total_size=986972208
out_time_us=1368240000
out_time_ms=1368240000
out_time=00:22:48.240000
dup_frames=0
drop_frames=0
speed=1.13x
progress=continue
frame=34328 fps= 28 q=23.0 size=  970496KiB time=00:22:53.16 bitrate=5789.8kbits/s speed=1.13x    
frame=34328
fps=28.36
stream_0_0_q=23.0
bitrate=5789.8kbits/s
total_size=993787952
out_time_us=1373160000
out_time_ms=1373160000
out_time=00:22:53.160000
dup_frames=0
drop_frames=0
speed=1.13x
progress=continue
frame=34450 fps= 28 q=23.0 size=  978176KiB time=00:22:58.04 bitrate=5814.9kbits/s speed=1.13x    
frame=34450
fps=28.34
stream_0_0_q=23.0
bitrate=5814.9kbits/s
total_size=1001652272
out_time_us=1378040000
out_time_ms=1378040000
out_time=00:22:58.040000
dup_frames=0
drop_frames=0
speed=1.13x
progress=continue
frame=34585 fps= 28 q=23.0 size=  983296KiB time=00:23:03.44 bitrate=5822.6kbits/s speed=1.13x    
frame=34585
fps=28.33
stream_0_0_q=23.0
bitrate=5822.6kbits/s
total_size=1006895152
out_time_us=1383440000
out_time_ms=1383440000
out_time=00:23:03.440000
dup_frames=0
drop_frames=0
speed=1.13x
progress=continue
frame=34722 fps= 28 q=23.0 size=  987392KiB time=00:23:08.88 bitrate=5823.9kbits/s speed=1.13x    
frame=34722
fps=28.33
stream_0_0_q=23.0
bitrate=5823.9kbits/s
total_size=1011089456
out_time_us=1388880000
out_time_ms=1388880000
out_time=00:23:08.880000
dup_frames=0
drop_frames=0
speed=1.13x
progress=continue
frame=34845 fps= 28 q=23.0 size=  991744KiB time=00:23:13.84 bitrate=5828.8kbits/s speed=1.13x    
frame=34845
fps=28.31
stream_0_0_q=23.0
bitrate=5828.8kbits/s
total_size=1015545904
out_time_us=1393840000
out_time_ms=1393840000
out_time=00:23:13.840000
dup_frames=0
drop_frames=0
speed=1.13x
progress=continue
frame=34970 fps= 28 q=23.0 size=  995840KiB time=00:23:18.80 bitrate=5832.1kbits/s speed=1.13x    
frame=34970
fps=28.30
stream_0_0_q=23.0
bitrate=5832.1kbits/s
total_size=1019740208
out_time_us=1398800000
out_time_ms=1398800000
out_time=00:23:18.800000
dup_frames=0
drop_frames=0
speed=1.13x
progress=continue
frame=35098 fps= 28 q=23.0 size= 1000448KiB time=00:23:23.92 bitrate=5837.7kbits/s speed=1.13x    
frame=35098
fps=28.29
stream_0_0_q=23.0
bitrate=5837.7kbits/s
total_size=1024458800
out_time_us=1403920000
out_time_ms=1403920000
out_time=00:23:23.920000
dup_frames=0
drop_frames=0
speed=1.13x
progress=continue
frame=35249 fps= 28 q=23.0 size= 1005056KiB time=00:23:30.00 bitrate=5839.3kbits/s speed=1.13x    
frame=35249
fps=28.29
stream_0_0_q=23.0
bitrate=5839.3kbits/s
total_size=1029177392
out_time_us=1410000000
out_time_ms=1410000000
out_time=00:23:30.000000
dup_frames=0
drop_frames=0
speed=1.13x
progress=continue
frame=35387 fps= 28 q=23.0 size= 1010432KiB time=00:23:35.52 bitrate=5847.6kbits/s speed=1.13x    
frame=35387
fps=28.29
stream_0_0_q=23.0
bitrate=5847.6kbits/s
total_size=1034682416
out_time_us=1415520000
out_time_ms=1415520000
out_time=00:23:35.520000
dup_frames=0
drop_frames=0
speed=1.13x
progress=continue
frame=35533 fps= 28 q=23.0 size= 1015296KiB time=00:23:41.36 bitrate=5851.7kbits/s speed=1.13x    
frame=35533
fps=28.29
stream_0_0_q=23.0
bitrate=5851.7kbits/s
total_size=1039663152
out_time_us=1421360000
out_time_ms=1421360000
out_time=00:23:41.360000
dup_frames=0
drop_frames=0
speed=1.13x
progress=continue
frame=35662 fps= 28 q=23.0 size= 1019648KiB time=00:23:46.52 bitrate=5855.5kbits/s speed=1.13x    
frame=35662
fps=28.28
stream_0_0_q=23.0
bitrate=5855.5kbits/s
total_size=1044119600
out_time_us=1426520000
out_time_ms=1426520000
out_time=00:23:46.520000
dup_frames=0
drop_frames=0
speed=1.13x
progress=continue
frame=35786 fps= 28 q=23.0 size= 1026048KiB time=00:23:51.44 bitrate=5872.0kbits/s speed=1.13x    
frame=35786
fps=28.27
stream_0_0_q=23.0
bitrate=5872.0kbits/s
total_size=1050673200
out_time_us=1431440000
out_time_ms=1431440000
out_time=00:23:51.440000
dup_frames=0
drop_frames=0
speed=1.13x
progress=continue
frame=35913 fps= 28 q=23.0 size= 1033728KiB time=00:23:56.56 bitrate=5894.8kbits/s speed=1.13x    
frame=35913
fps=28.25
stream_0_0_q=23.0
bitrate=5894.8kbits/s
total_size=1058537520
out_time_us=1436560000
out_time_ms=1436560000
out_time=00:23:56.560000
dup_frames=0
drop_frames=0
speed=1.13x
progress=continue
frame=36040 fps= 28 q=20.0 size= 1037824KiB time=00:24:01.60 bitrate=5897.5kbits/s speed=1.13x    
frame=36040
fps=28.24
stream_0_0_q=20.0
bitrate=5897.5kbits/s
total_size=1062731824
out_time_us=1441600000
out_time_ms=1441600000
out_time=00:24:01.600000
dup_frames=0
drop_frames=0
speed=1.13x
progress=continue
frame=36168 fps= 28 q=23.0 size= 1042176KiB time=00:24:06.76 bitrate=5901.1kbits/s speed=1.13x    
frame=36168
fps=28.23
stream_0_0_q=23.0
bitrate=5901.1kbits/s
total_size=1067188272
out_time_us=1446760000
out_time_ms=1446760000
out_time=00:24:06.760000
dup_frames=0
drop_frames=0
speed=1.13x
progress=continue
frame=36286 fps= 28 q=23.0 size= 1046528KiB time=00:24:11.48 bitrate=5906.5kbits/s speed=1.13x    
frame=36286
fps=28.21
stream_0_0_q=23.0
bitrate=5906.5kbits/s
total_size=1071644720
out_time_us=1451480000
out_time_ms=1451480000
out_time=00:24:11.480000
dup_frames=0
drop_frames=0
speed=1.13x
progress=continue
frame=36393 fps= 28 q=23.0 size= 1051648KiB time=00:24:15.72 bitrate=5918.1kbits/s speed=1.13x    
frame=36393
fps=28.19
stream_0_0_q=23.0
bitrate=5918.1kbits/s
total_size=1076887600
out_time_us=1455720000
out_time_ms=1455720000
out_time=00:24:15.720000
dup_frames=0
drop_frames=0
speed=1.13x
progress=continue
frame=36538 fps= 28 q=23.0 size= 1056768KiB time=00:24:21.56 bitrate=5923.2kbits/s speed=1.13x    
frame=36538
fps=28.19
stream_0_0_q=23.0
bitrate=5923.2kbits/s
total_size=1082130480
out_time_us=1461560000
out_time_ms=1461560000
out_time=00:24:21.560000
dup_frames=0
drop_frames=0
speed=1.13x
progress=continue
frame=36680 fps= 28 q=23.0 size= 1060864KiB time=00:24:27.24 bitrate=5923.1kbits/s speed=1.13x    
frame=36680
fps=28.19
stream_0_0_q=23.0
bitrate=5923.1kbits/s
total_size=1086324784
out_time_us=1467240000
out_time_ms=1467240000
out_time=00:24:27.240000
dup_frames=0
drop_frames=0
speed=1.13x
progress=continue
frame=36828 fps= 28 q=23.0 size= 1065216KiB time=00:24:33.16 bitrate=5923.5kbits/s speed=1.13x    
frame=36828
fps=28.19
stream_0_0_q=23.0
bitrate=5923.5kbits/s
total_size=1090781232
out_time_us=1473160000
out_time_ms=1473160000
out_time=00:24:33.160000
dup_frames=0
drop_frames=0
speed=1.13x
progress=continue
frame=36966 fps= 28 q=23.0 size= 1068800KiB time=00:24:38.68 bitrate=5921.2kbits/s speed=1.13x    
frame=36966
fps=28.19
stream_0_0_q=23.0
bitrate=5921.2kbits/s
total_size=1094451248
out_time_us=1478680000
out_time_ms=1478680000
out_time=00:24:38.680000
dup_frames=0
drop_frames=0
speed=1.13x
progress=continue
frame=37115 fps= 28 q=20.0 size= 1072896KiB time=00:24:44.60 bitrate=5920.2kbits/s speed=1.13x    
frame=37115
fps=28.19
stream_0_0_q=20.0
bitrate=5920.2kbits/s
total_size=1098645552
out_time_us=1484600000
out_time_ms=1484600000
out_time=00:24:44.600000
dup_frames=0
drop_frames=0
speed=1.13x
progress=continue
frame=37271 fps= 28 q=23.0 size= 1076224KiB time=00:24:50.84 bitrate=5913.7kbits/s speed=1.13x    
frame=37271
fps=28.21
stream_0_0_q=23.0
bitrate=5913.7kbits/s
total_size=1102053424
out_time_us=1490840000
out_time_ms=1490840000
out_time=00:24:50.840000
dup_frames=0
drop_frames=0
speed=1.13x
progress=continue
frame=37419 fps= 28 q=23.0 size= 1079296KiB time=00:24:56.80 bitrate=5907.0kbits/s speed=1.13x    
frame=37419
fps=28.21
stream_0_0_q=23.0
bitrate=5907.0kbits/s
total_size=1105199152
out_time_us=1496800000
out_time_ms=1496800000
out_time=00:24:56.800000
dup_frames=0
drop_frames=0
speed=1.13x
progress=continue
frame=37582 fps= 28 q=23.0 size= 1082624KiB time=00:25:03.32 bitrate=5899.5kbits/s speed=1.13x    
frame=37582
fps=28.23
stream_0_0_q=23.0
bitrate=5899.5kbits/s
total_size=1108607024
out_time_us=1503320000
out_time_ms=1503320000
out_time=00:25:03.320000
dup_frames=0
drop_frames=0
speed=1.13x
progress=continue
frame=37731 fps= 28 q=23.0 size= 1086208KiB time=00:25:09.00 bitrate=5896.8kbits/s speed=1.13x    
frame=37731
fps=28.23
stream_0_0_q=23.0
bitrate=5896.8kbits/s
total_size=1112277040
out_time_us=1509000000
out_time_ms=1509000000
out_time=00:25:09.000000
dup_frames=0
drop_frames=0
speed=1.13x
progress=continue
frame=37872 fps= 28 q=23.0 size= 1089792KiB time=00:25:14.88 bitrate=5893.3kbits/s speed=1.13x    
frame=37872
fps=28.23
stream_0_0_q=23.0
bitrate=5893.3kbits/s
total_size=1115947056
out_time_us=1514880000
out_time_ms=1514880000
out_time=00:25:14.880000
dup_frames=0
drop_frames=0
speed=1.13x
progress=continue
frame=38030 fps= 28 q=23.0 size= 1093376KiB time=00:25:21.24 bitrate=5887.9kbits/s speed=1.13x    
frame=38030
fps=28.24
stream_0_0_q=23.0
bitrate=5887.9kbits/s
total_size=1119617072
out_time_us=1521240000
out_time_ms=1521240000
out_time=00:25:21.240000
dup_frames=0
drop_frames=0
speed=1.13x
progress=continue
frame=38189 fps= 28 q=23.0 size= 1096960KiB time=00:25:27.60 bitrate=5882.6kbits/s speed=1.13x    
frame=38189
fps=28.25
stream_0_0_q=23.0
bitrate=5882.6kbits/s
total_size=1123287088
out_time_us=1527600000
out_time_ms=1527600000
out_time=00:25:27.600000
dup_frames=0
drop_frames=0
speed=1.13x
progress=continue
frame=38328 fps= 28 q=23.0 size= 1100800KiB time=00:25:33.16 bitrate=5881.8kbits/s speed=1.13x    
frame=38328
fps=28.25
stream_0_0_q=23.0
bitrate=5881.8kbits/s
total_size=1127219248
out_time_us=1533160000
out_time_ms=1533160000
out_time=00:25:33.160000
dup_frames=0
drop_frames=0
speed=1.13x
progress=continue
frame=38509 fps= 28 q=23.0 size= 1103104KiB time=00:25:40.40 bitrate=5866.4kbits/s speed=1.13x    
frame=38509
fps=28.28
stream_0_0_q=23.0
bitrate=5866.4kbits/s
total_size=1129578544
out_time_us=1540400000
out_time_ms=1540400000
out_time=00:25:40.400000
dup_frames=0
drop_frames=0
speed=1.13x
progress=continue
frame=38612 fps= 28 q=23.0 size= 1107456KiB time=00:25:44.52 bitrate=5873.9kbits/s speed=1.13x    
frame=38612
fps=28.25
stream_0_0_q=23.0
bitrate=5873.9kbits/s
total_size=1134034992
out_time_us=1544520000
out_time_ms=1544520000
out_time=00:25:44.520000
dup_frames=0
drop_frames=0
speed=1.13x
progress=continue
frame=38724 fps= 28 q=23.0 size= 1112832KiB time=00:25:49.00 bitrate=5885.3kbits/s speed=1.13x    
frame=38724
fps=28.23
stream_0_0_q=23.0
bitrate=5885.3kbits/s
total_size=1139540016
out_time_us=1549000000
out_time_ms=1549000000
out_time=00:25:49.000000
dup_frames=0
drop_frames=0
speed=1.13x
progress=continue
frame=38836 fps= 28 q=23.0 size= 1117184KiB time=00:25:53.44 bitrate=5891.4kbits/s speed=1.13x    
frame=38836
fps=28.21
stream_0_0_q=23.0
bitrate=5891.4kbits/s
total_size=1143996464
out_time_us=1553440000
out_time_ms=1553440000
out_time=00:25:53.440000
dup_frames=0
drop_frames=0
speed=1.13x
progress=continue
frame=38955 fps= 28 q=23.0 size= 1121792KiB time=00:25:58.16 bitrate=5897.8kbits/s speed=1.13x    
frame=38955
fps=28.19
stream_0_0_q=23.0
bitrate=5897.8kbits/s
total_size=1148715056
out_time_us=1558160000
out_time_ms=1558160000
out_time=00:25:58.160000
dup_frames=0
drop_frames=0
speed=1.13x
progress=continue
frame=39039 fps= 28 q=23.0 size= 1129984KiB time=00:26:01.56 bitrate=5927.9kbits/s speed=1.13x    
frame=39039
fps=28.14
stream_0_0_q=23.0
bitrate=5927.9kbits/s
total_size=1157103664
out_time_us=1561560000
out_time_ms=1561560000
out_time=00:26:01.560000
dup_frames=0
drop_frames=0
speed=1.13x
progress=continue
frame=39149 fps= 28 q=23.0 size= 1136128KiB time=00:26:05.96 bitrate=5943.4kbits/s speed=1.12x    
frame=39149
fps=28.12
stream_0_0_q=23.0
bitrate=5943.4kbits/s
total_size=1163395120
out_time_us=1565960000
out_time_ms=1565960000
out_time=00:26:05.960000
dup_frames=0
drop_frames=0
speed=1.12x
progress=continue
frame=39266 fps= 28 q=23.0 size= 1140992KiB time=00:26:10.60 bitrate=5951.2kbits/s speed=1.12x    
frame=39266
fps=28.10
stream_0_0_q=23.0
bitrate=5951.2kbits/s
total_size=1168375856
out_time_us=1570600000
out_time_ms=1570600000
out_time=00:26:10.600000
dup_frames=0
drop_frames=0
speed=1.12x
progress=continue
frame=39382 fps= 28 q=23.0 size= 1146112KiB time=00:26:15.32 bitrate=5960.0kbits/s speed=1.12x    
frame=39382
fps=28.08
stream_0_0_q=23.0
bitrate=5960.0kbits/s
total_size=1173618736
out_time_us=1575320000
out_time_ms=1575320000
out_time=00:26:15.320000
dup_frames=0
drop_frames=0
speed=1.12x
progress=continue
frame=39494 fps= 28 q=23.0 size= 1152256KiB time=00:26:19.72 bitrate=5975.3kbits/s speed=1.12x    
frame=39494
fps=28.06
stream_0_0_q=23.0
bitrate=5975.3kbits/s
total_size=1179910192
out_time_us=1579720000
out_time_ms=1579720000
out_time=00:26:19.720000
dup_frames=0
drop_frames=0
speed=1.12x
progress=continue
frame=39609 fps= 28 q=23.0 size= 1158144KiB time=00:26:24.32 bitrate=5988.4kbits/s speed=1.12x    
frame=39609
fps=28.04
stream_0_0_q=23.0
bitrate=5988.4kbits/s
total_size=1185939504
out_time_us=1584320000
out_time_ms=1584320000
out_time=00:26:24.320000
dup_frames=0
drop_frames=0
speed=1.12x
progress=continue
frame=39726 fps= 28 q=23.0 size= 1163520KiB time=00:26:29.08 bitrate=5998.2kbits/s speed=1.12x    
frame=39726
fps=28.02
stream_0_0_q=23.0
bitrate=5998.2kbits/s
total_size=1191444528
out_time_us=1589080000
out_time_ms=1589080000
out_time=00:26:29.080000
dup_frames=0
drop_frames=0
speed=1.12x
progress=continue
frame=39817 fps= 28 q=23.0 size= 1169408KiB time=00:26:32.64 bitrate=6015.0kbits/s speed=1.12x    
frame=39817
fps=27.99
stream_0_0_q=23.0
bitrate=6015.0kbits/s
total_size=1197473840
out_time_us=1592640000
out_time_ms=1592640000
out_time=00:26:32.640000
dup_frames=0
drop_frames=0
speed=1.12x
progress=continue
frame=39914 fps= 28 q=23.0 size= 1174784KiB time=00:26:36.56 bitrate=6027.9kbits/s speed=1.12x    
frame=39914
fps=27.95
stream_0_0_q=23.0
bitrate=6027.9kbits/s
total_size=1202978864
out_time_us=1596560000
out_time_ms=1596560000
out_time=00:26:36.560000
dup_frames=0
drop_frames=0
speed=1.12x
progress=continue
frame=40012 fps= 28 q=23.0 size= 1180160KiB time=00:26:40.52 bitrate=6040.5kbits/s speed=1.12x    
frame=40012
fps=27.92
stream_0_0_q=23.0
bitrate=6040.5kbits/s
total_size=1208483888
out_time_us=1600520000
out_time_ms=1600520000
out_time=00:26:40.520000
dup_frames=0
drop_frames=0
speed=1.12x
progress=continue
frame=40133 fps= 28 q=23.0 size= 1185280KiB time=00:26:45.36 bitrate=6048.4kbits/s speed=1.12x    
frame=40133
fps=27.91
stream_0_0_q=23.0
bitrate=6048.4kbits/s
total_size=1213726768
out_time_us=1605360000
out_time_ms=1605360000
out_time=00:26:45.360000
dup_frames=0
drop_frames=0
speed=1.12x
progress=continue
frame=40245 fps= 28 q=23.0 size= 1190400KiB time=00:26:49.80 bitrate=6057.7kbits/s speed=1.12x    
frame=40245
fps=27.89
stream_0_0_q=23.0
bitrate=6057.7kbits/s
total_size=1218969648
out_time_us=1609800000
out_time_ms=1609800000
out_time=00:26:49.800000
dup_frames=0
drop_frames=0
speed=1.12x
progress=continue
frame=40352 fps= 28 q=23.0 size= 1197824KiB time=00:26:54.12 bitrate=6079.2kbits/s speed=1.11x    
frame=40352
fps=27.87
stream_0_0_q=23.0
bitrate=6079.2kbits/s
total_size=1226571824
out_time_us=1614120000
out_time_ms=1614120000
out_time=00:26:54.120000
dup_frames=0
drop_frames=0
speed=1.11x
progress=continue
frame=40462 fps= 28 q=23.0 size= 1201920KiB time=00:26:58.48 bitrate=6083.6kbits/s speed=1.11x    
frame=40462
fps=27.85
stream_0_0_q=23.0
bitrate=6083.6kbits/s
total_size=1230766128
out_time_us=1618480000
out_time_ms=1618480000
out_time=00:26:58.480000
dup_frames=0
drop_frames=0
speed=1.11x
progress=continue
frame=40557 fps= 28 q=23.0 size= 1208064KiB time=00:27:02.32 bitrate=6100.2kbits/s speed=1.11x    
frame=40557
fps=27.81
stream_0_0_q=23.0
bitrate=6100.2kbits/s
total_size=1237057584
out_time_us=1622320000
out_time_ms=1622320000
out_time=00:27:02.320000
dup_frames=0
drop_frames=0
speed=1.11x
progress=continue
frame=40660 fps= 28 q=23.0 size= 1214208KiB time=00:27:06.44 bitrate=6115.7kbits/s speed=1.11x    
frame=40660
fps=27.79
stream_0_0_q=23.0
bitrate=6115.7kbits/s
total_size=1243349040
out_time_us=1626440000
out_time_ms=1626440000
out_time=00:27:06.440000
dup_frames=0
drop_frames=0
speed=1.11x
progress=continue
frame=40778 fps= 28 q=23.0 size= 1219072KiB time=00:27:11.16 bitrate=6122.4kbits/s speed=1.11x    
frame=40778
fps=27.77
stream_0_0_q=23.0
bitrate=6122.4kbits/s
total_size=1248329776
out_time_us=1631160000
out_time_ms=1631160000
out_time=00:27:11.160000
dup_frames=0
drop_frames=0
speed=1.11x
progress=continue
frame=40896 fps= 28 q=23.0 size= 1223680KiB time=00:27:15.88 bitrate=6127.8kbits/s speed=1.11x    
frame=40896
fps=27.76
stream_0_0_q=23.0
bitrate=6127.8kbits/s
total_size=1253048368
out_time_us=1635880000
out_time_ms=1635880000
out_time=00:27:15.880000
dup_frames=0
drop_frames=0
speed=1.11x
progress=continue
frame=40997 fps= 28 q=23.0 size= 1229056KiB time=00:27:19.92 bitrate=6139.6kbits/s speed=1.11x    
frame=40997
fps=27.73
stream_0_0_q=23.0
bitrate=6139.6kbits/s
total_size=1258553392
out_time_us=1639920000
out_time_ms=1639920000
out_time=00:27:19.920000
dup_frames=0
drop_frames=0
speed=1.11x
progress=continue
frame=41106 fps= 28 q=23.0 size= 1235456KiB time=00:27:24.24 bitrate=6155.3kbits/s speed=1.11x    
frame=41106
fps=27.71
stream_0_0_q=23.0
bitrate=6155.3kbits/s
total_size=1265106992
out_time_us=1644240000
out_time_ms=1644240000
out_time=00:27:24.240000
dup_frames=0
drop_frames=0
speed=1.11x
progress=continue
frame=41217 fps= 28 q=23.0 size= 1240832KiB time=00:27:28.72 bitrate=6165.3kbits/s speed=1.11x    
frame=41217
fps=27.69
stream_0_0_q=23.0
bitrate=6165.3kbits/s
total_size=1270612016
out_time_us=1648720000
out_time_ms=1648720000
out_time=00:27:28.720000
dup_frames=0
drop_frames=0
speed=1.11x
progress=continue
frame=41322 fps= 28 q=23.0 size= 1245696KiB time=00:27:32.88 bitrate=6173.9kbits/s speed=1.11x    
frame=41322
fps=27.67
stream_0_0_q=23.0
bitrate=6173.9kbits/s
total_size=1275592752
out_time_us=1652880000
out_time_ms=1652880000
out_time=00:27:32.880000
dup_frames=0
drop_frames=0
speed=1.11x
progress=continue
frame=41431 fps= 28 q=23.0 size= 1251328KiB time=00:27:37.28 bitrate=6185.4kbits/s speed=1.11x    
frame=41431
fps=27.65
stream_0_0_q=23.0
bitrate=6185.4kbits/s
total_size=1281359920
out_time_us=1657280000
out_time_ms=1657280000
out_time=00:27:37.280000
dup_frames=0
drop_frames=0
speed=1.11x
progress=continue
frame=41538 fps= 28 q=23.0 size= 1256448KiB time=00:27:41.56 bitrate=6194.7kbits/s speed=1.11x    
frame=41538
fps=27.63
stream_0_0_q=23.0
bitrate=6194.7kbits/s
total_size=1286602800
out_time_us=1661560000
out_time_ms=1661560000
out_time=00:27:41.560000
dup_frames=0
drop_frames=0
speed=1.11x
progress=continue
frame=41646 fps= 28 q=23.0 size= 1261312KiB time=00:27:45.88 bitrate=6202.5kbits/s speed= 1.1x    
frame=41646
fps=27.61
stream_0_0_q=23.0
bitrate=6202.5kbits/s
total_size=1291583536
out_time_us=1665880000
out_time_ms=1665880000
out_time=00:27:45.880000
dup_frames=0
drop_frames=0
speed= 1.1x
progress=continue
frame=41769 fps= 28 q=23.0 size= 1266688KiB time=00:27:50.72 bitrate=6210.9kbits/s speed= 1.1x    
frame=41769
fps=27.60
stream_0_0_q=23.0
bitrate=6210.9kbits/s
total_size=1297088560
out_time_us=1670720000
out_time_ms=1670720000
out_time=00:27:50.720000
dup_frames=0
drop_frames=0
speed= 1.1x
progress=continue
frame=41872 fps= 28 q=23.0 size= 1274880KiB time=00:27:54.88 bitrate=6235.6kbits/s speed= 1.1x    
frame=41872
fps=27.57
stream_0_0_q=23.0
bitrate=6235.6kbits/s
total_size=1305477168
out_time_us=1674880000
out_time_ms=1674880000
out_time=00:27:54.880000
dup_frames=0
drop_frames=0
speed= 1.1x
progress=continue
[mp4 @ 000001d467b14500] Starting second pass: moving the moov atom to the beginning of the file
[out#0/mp4 @ 000001d468167a00] video:1243120KiB audio:39497KiB subtitle:0KiB other streams:0KiB global headers:0KiB muxing overhead: 0.074738%
frame=41979 fps= 28 q=-1.0 Lsize= 1283576KiB time=00:27:59.20 bitrate=6261.9kbits/s speed= 1.1x    
frame=41979
fps=27.54
stream_0_0_q=-1.0
bitrate=6261.9kbits/s
total_size=1314381645
out_time_us=1679200000
out_time_ms=1679200000
out_time=00:27:59.200000
dup_frames=0
drop_frames=0
speed= 1.1x
progress=end
[libx264 @ 000001d468181380] frame I:1680  Avg QP:14.11  size:161824
[libx264 @ 000001d468181380] frame P:40299 Avg QP:17.43  size: 24842
[libx264 @ 000001d468181380] mb I  I16..4: 11.4% 69.5% 19.1%
[libx264 @ 000001d468181380] mb P  I16..4:  1.6%  4.9%  0.6%  P16..4: 34.5% 11.5%  6.0%  0.0%  0.0%    skip:40.9%
[libx264 @ 000001d468181380] 8x8 transform intra:69.3% inter:78.1%
[libx264 @ 000001d468181380] coded y,uvDC,uvAC intra: 59.0% 49.8% 26.1% inter: 18.1% 11.9% 0.5%
[libx264 @ 000001d468181380] i16 v,h,dc,p: 31% 17%  4% 48%
[libx264 @ 000001d468181380] i8 v,h,dc,ddl,ddr,vr,hd,vl,hu: 33% 16% 13%  5%  6%  8%  6%  8%  6%
[libx264 @ 000001d468181380] i4 v,h,dc,ddl,ddr,vr,hd,vl,hu: 36% 18% 10%  5%  9%  8%  6%  5%  4%
[libx264 @ 000001d468181380] i8c dc,h,v,p: 52% 18% 24%  6%
[libx264 @ 000001d468181380] Weighted P-Frames: Y:1.2% UV:0.8%
[libx264 @ 000001d468181380] ref P L0: 64.6% 10.1% 17.9%  7.4%  0.0%
[libx264 @ 000001d468181380] kb/s:6064.72
[aac @ 000001d467f19280] Qavg: 1236.836
